<svg width="258" height="67" viewBox="0 0 258 67" fill="none" xmlns="http://www.w3.org/2000/svg">
<rect y="3" width="258" height="64" fill="#FE3989"/>
<g opacity="0.24">
<line y1="10.5" x2="258" y2="10.5" stroke="#FFEBD3"/>
<line x1="0.5" y1="3" x2="0.499997" y2="67" stroke="#FFEBD3"/>
<line x1="8.5" y1="3" x2="8.5" y2="67" stroke="#FFEBD3"/>
<line x1="16.5" y1="3" x2="16.5" y2="67" stroke="#FFEBD3"/>
<line x1="24.5" y1="3" x2="24.5" y2="67" stroke="#FFEBD3"/>
<line x1="32.5" y1="3" x2="32.5" y2="67" stroke="#FFEBD3"/>
<line x1="40.5" y1="3" x2="40.5" y2="67" stroke="#FFEBD3"/>
<line x1="48.5" y1="3" x2="48.5" y2="67" stroke="#FFEBD3"/>
<line x1="56.5" y1="3" x2="56.5" y2="67" stroke="#FFEBD3"/>
<line x1="64.5" y1="3" x2="64.5" y2="67" stroke="#FFEBD3"/>
<line x1="72.5" y1="3" x2="72.5" y2="67" stroke="#FFEBD3"/>
<line x1="80.5" y1="3" x2="80.5" y2="67" stroke="#FFEBD3"/>
<line x1="88.5" y1="3" x2="88.5" y2="67" stroke="#FFEBD3"/>
<line x1="96.5" y1="3" x2="96.5" y2="67" stroke="#FFEBD3"/>
<line x1="104.5" y1="3" x2="104.5" y2="67" stroke="#FFEBD3"/>
<line x1="112.5" y1="3" x2="112.5" y2="67" stroke="#FFEBD3"/>
<line x1="120.5" y1="3" x2="120.5" y2="67" stroke="#FFEBD3"/>
<line x1="128.5" y1="3" x2="128.5" y2="67" stroke="#FFEBD3"/>
<line x1="136.5" y1="3" x2="136.5" y2="67" stroke="#FFEBD3"/>
<line x1="144.5" y1="3" x2="144.5" y2="67" stroke="#FFEBD3"/>
<line x1="152.5" y1="3" x2="152.5" y2="67" stroke="#FFEBD3"/>
<line x1="160.5" y1="3" x2="160.5" y2="67" stroke="#FFEBD3"/>
<line x1="168.5" y1="3" x2="168.5" y2="67" stroke="#FFEBD3"/>
<line x1="176.5" y1="3" x2="176.5" y2="67" stroke="#FFEBD3"/>
<line x1="184.5" y1="3" x2="184.5" y2="67" stroke="#FFEBD3"/>
<line x1="192.5" y1="3" x2="192.5" y2="67" stroke="#FFEBD3"/>
<line x1="200.5" y1="3" x2="200.5" y2="67" stroke="#FFEBD3"/>
<line x1="208.5" y1="3" x2="208.5" y2="67" stroke="#FFEBD3"/>
<line x1="216.5" y1="3" x2="216.5" y2="67" stroke="#FFEBD3"/>
<line x1="224.5" y1="3" x2="224.5" y2="67" stroke="#FFEBD3"/>
<line x1="233.5" y1="3" x2="233.5" y2="67" stroke="#FFEBD3"/>
<line x1="241.5" y1="3" x2="241.5" y2="67" stroke="#FFEBD3"/>
<line x1="249.5" y1="3" x2="249.5" y2="67" stroke="#FFEBD3"/>
<line x1="257.5" y1="3" x2="257.5" y2="67" stroke="#FFEBD3"/>
<line x1="224.5" y1="27" x2="224.5" y2="67" stroke="#FFEBD3"/>
<line y1="2.5" x2="200" y2="2.5" stroke="#FFEBD3"/>
<line y1="18.5" x2="258" y2="18.5" stroke="#FFEBD3"/>
<line y1="26.5" x2="258" y2="26.5" stroke="#FFEBD3"/>
<line y1="34.5" x2="258" y2="34.5" stroke="#FFEBD3"/>
<line y1="42.5" x2="258" y2="42.5" stroke="#FFEBD3"/>
<line y1="50.5" x2="258" y2="50.5" stroke="#FFEBD3"/>
<line y1="58.5" x2="258" y2="58.5" stroke="#FFEBD3"/>
<line y1="66.5" x2="258" y2="66.5" stroke="#FFEBD3"/>
</g>
<path d="M51.0078 39.8633V38.7148V37.5781V36.4297V35.293V34.1445V33.0078V31.8594V30.7227V29.5742V28.4375V27.2891V26.1523H52.1445V25.0039H53.293H54.4297H55.5781H56.7148H57.8633H59H60.1484H61.2852H62.4336V26.1523H63.5703V27.2891V28.4375H62.4336H61.2852H60.1484H59V27.2891H57.8633H56.7148H55.5781V28.4375H54.4297V29.5742V30.7227V31.8594V33.0078V34.1445V35.293V36.4297V37.5781H55.5781V38.7148H56.7148H57.8633H59V37.5781H60.1484V36.4297V35.293H59H57.8633H56.7148V34.1445V33.0078V31.8594H57.8633H59H60.1484H61.2852H62.4336H63.5703V33.0078V34.1445V35.293V36.4297V37.5781V38.7148V39.8633H62.4336V41H61.2852H60.1484H59H57.8633H56.7148H55.5781H54.4297H53.293H52.1445V39.8633H51.0078ZM64.7188 39.8633V38.7148V37.5781V36.4297V35.293V34.1445V33.0078V31.8594V30.7227H65.8555V29.5742H67.0039H68.1406H69.2891H70.4258H71.5742H72.7109H73.8594H74.9961V30.7227H76.1445V31.8594V33.0078V34.1445V35.293V36.4297H74.9961H73.8594H72.7109H71.5742H70.4258H69.2891H68.1406V37.5781H69.2891V38.7148H70.4258H71.5742H72.7109V37.5781H73.8594H74.9961H76.1445V38.7148V39.8633H74.9961V41H73.8594H72.7109H71.5742H70.4258H69.2891H68.1406H67.0039H65.8555V39.8633H64.7188ZM68.1406 34.1445H69.2891H70.4258H71.5742H72.7109V33.0078H71.5742V31.8594H70.4258H69.2891V33.0078H68.1406V34.1445ZM77.2812 31.8594V30.7227V29.5742H78.418V28.4375V27.2891H77.2812V26.1523V25.0039H78.418H79.5664H80.7031H81.8516V26.1523V27.2891V28.4375V29.5742H82.9883H84.1367V30.7227V31.8594H82.9883H81.8516V33.0078V34.1445V35.293V36.4297V37.5781V38.7148H82.9883V37.5781H84.1367H85.2734H86.4219V38.7148V39.8633H85.2734V41H84.1367H82.9883H81.8516H80.7031H79.5664V39.8633H78.418V38.7148V37.5781V36.4297V35.293V34.1445V33.0078V31.8594H77.2812ZM96.7109 31.8594V30.7227V29.5742H97.8477V28.4375V27.2891H96.7109V26.1523V25.0039H97.8477H98.9961H100.133H101.281V26.1523V27.2891V28.4375V29.5742H102.418H103.566V30.7227V31.8594H102.418H101.281V33.0078V34.1445V35.293V36.4297V37.5781V38.7148H102.418V37.5781H103.566H104.703H105.852V38.7148V39.8633H104.703V41H103.566H102.418H101.281H100.133H98.9961V39.8633H97.8477V38.7148V37.5781V36.4297V35.293V34.1445V33.0078V31.8594H96.7109ZM107 41V39.8633V38.7148H108.137V37.5781V36.4297V35.293V34.1445V33.0078V31.8594V30.7227V29.5742V28.4375V27.2891H107V26.1523V25.0039H108.137H109.285H110.422H111.57H112.707V26.1523V27.2891H111.57V28.4375V29.5742V30.7227H112.707V29.5742H113.855H114.992H116.141H117.277H118.426V30.7227H119.562V31.8594V33.0078V34.1445V35.293V36.4297V37.5781V38.7148H120.711V39.8633V41H119.562H118.426H117.277H116.141H114.992V39.8633V38.7148H116.141V37.5781V36.4297V35.293V34.1445V33.0078H114.992V31.8594H113.855H112.707V33.0078H111.57V34.1445V35.293V36.4297V37.5781V38.7148H112.707V39.8633V41H111.57H110.422H109.285H108.137H107ZM121.859 39.8633V38.7148V37.5781V36.4297V35.293V34.1445V33.0078V31.8594V30.7227H122.996V29.5742H124.145H125.281H126.43H127.566H128.715H129.852H131H132.137V30.7227H133.285V31.8594V33.0078V34.1445V35.293V36.4297H132.137H131H129.852H128.715H127.566H126.43H125.281V37.5781H126.43V38.7148H127.566H128.715H129.852V37.5781H131H132.137H133.285V38.7148V39.8633H132.137V41H131H129.852H128.715H127.566H126.43H125.281H124.145H122.996V39.8633H121.859ZM125.281 34.1445H126.43H127.566H128.715H129.852V33.0078H128.715V31.8594H127.566H126.43V33.0078H125.281V34.1445ZM143.562 41V39.8633V38.7148H144.699V37.5781V36.4297V35.293V34.1445V33.0078V31.8594V30.7227V29.5742V28.4375V27.2891H143.562V26.1523V25.0039H144.699H145.848H146.984H148.133H149.27V26.1523V27.2891H148.133V28.4375H149.27V29.5742H150.418V30.7227H151.555V29.5742H152.703V28.4375H153.84V27.2891H152.703V26.1523V25.0039H153.84H154.988H156.125H157.273H158.41V26.1523V27.2891H157.273V28.4375V29.5742V30.7227V31.8594V33.0078V34.1445V35.293V36.4297V37.5781V38.7148H158.41V39.8633V41H157.273H156.125H154.988H153.84H152.703V39.8633V38.7148H153.84V37.5781V36.4297V35.293V34.1445V33.0078V31.8594H152.703V33.0078H151.555V34.1445H150.418V33.0078H149.27V31.8594H148.133V33.0078V34.1445V35.293V36.4297V37.5781V38.7148H149.27V39.8633V41H148.133H146.984H145.848H144.699H143.562ZM159.57 39.8633V38.7148V37.5781V36.4297V35.293V34.1445V33.0078V31.8594V30.7227H160.707V29.5742H161.855H162.992H164.141H165.277H166.426H167.562H168.711H169.848V30.7227H170.996V31.8594V33.0078V34.1445V35.293V36.4297H169.848H168.711H167.562H166.426H165.277H164.141H162.992V37.5781H164.141V38.7148H165.277H166.426H167.562V37.5781H168.711H169.848H170.996V38.7148V39.8633H169.848V41H168.711H167.562H166.426H165.277H164.141H162.992H161.855H160.707V39.8633H159.57ZM162.992 34.1445H164.141H165.277H166.426H167.562V33.0078H166.426V31.8594H165.277H164.141V33.0078H162.992V34.1445ZM172.133 41V39.8633V38.7148H173.27V37.5781V36.4297V35.293V34.1445V33.0078V31.8594H172.133V30.7227V29.5742H173.27H174.418V30.7227H175.555V29.5742H176.703H177.84H178.988H180.125H181.273V30.7227H182.41V31.8594V33.0078V34.1445H181.273H180.125H178.988V33.0078V31.8594H177.84V33.0078H176.703V34.1445V35.293V36.4297V37.5781V38.7148V39.8633V41H175.555H174.418H173.27H172.133ZM183.57 39.8633V38.7148V37.5781V36.4297V35.293V34.1445V33.0078V31.8594V30.7227H184.707V29.5742H185.855H186.992H188.141H189.277H190.426H191.562H192.711H193.848V30.7227H194.996V31.8594V33.0078H193.848H192.711H191.562V31.8594H190.426H189.277H188.141V33.0078H186.992V34.1445V35.293V36.4297V37.5781H188.141V38.7148H189.277H190.426H191.562V37.5781V36.4297H192.711H193.848H194.996V37.5781V38.7148V39.8633H193.848V41H192.711H191.562H190.426H189.277H188.141H186.992H185.855H184.707V39.8633H183.57ZM196.133 41V39.8633V38.7148H197.27V37.5781V36.4297V35.293V34.1445V33.0078V31.8594V30.7227V29.5742V28.4375V27.2891H196.133V26.1523V25.0039H197.27H198.418H199.555H200.703H201.84V26.1523V27.2891H200.703V28.4375V29.5742V30.7227H201.84V29.5742H202.988H204.125H205.273H206.41H207.559V30.7227H208.695V31.8594V33.0078V34.1445V35.293V36.4297V37.5781V38.7148H209.844V39.8633V41H208.695H207.559H206.41H205.273H204.125V39.8633V38.7148H205.273V37.5781V36.4297V35.293V34.1445V33.0078H204.125V31.8594H202.988H201.84V33.0078H200.703V34.1445V35.293V36.4297V37.5781V38.7148H201.84V39.8633V41H200.703H199.555H198.418H197.27H196.133Z" fill="#FFEBD3"/>
<rect width="234" height="3" fill="#FFEBD3"/>
<rect x="24" y="62" width="218" height="4" fill="#00001F"/>
<rect y="16" width="3" height="43" fill="#FFEBD3"/>
<path fill-rule="evenodd" clip-rule="evenodd" d="M8 8H0V16H8V8ZM16 35H24V43H16V35ZM16 59V51V43H8V51V59H0V67H8V59H16ZM16 59H24V67H16V59Z" fill="#00001F"/>
<rect x="4" y="12" width="4" height="4" fill="#FFEBD3"/>
<rect y="3" width="4" height="5" fill="#FFEBD3"/>
</svg>
