<svg width="412" height="245" viewBox="0 0 412 245" fill="none" xmlns="http://www.w3.org/2000/svg">
<path d="M22.5781 32V30.4768V28.9379H24.1013V27.4147V25.8758V24.3526V22.8137V21.2905V19.7516V18.2284V16.6895V15.1663V13.6273H22.5781V12.1041V10.5652H24.1013H25.6402H27.1634H28.7023H30.2255H31.7645H33.2877H34.8266H36.3498H37.8887V12.1041V13.6273V15.1663H36.3498H34.8266H33.2877V13.6273H31.7645H30.2255H28.7023V15.1663V16.6895V18.2284V19.7516H30.2255H31.7645V18.2284H33.2877H34.8266V19.7516V21.2905V22.8137V24.3526H33.2877H31.7645V22.8137H30.2255H28.7023V24.3526V25.8758V27.4147V28.9379H30.2255V30.4768V32H28.7023H27.1634H25.6402H24.1013H22.5781ZM39.4119 30.4768V28.9379V27.4147V25.8758V24.3526V22.8137V21.2905V19.7516V18.2284H40.9351V16.6895H42.474H43.9972H45.5361H47.0593H48.5982H50.1214H51.6603H53.1835V18.2284H54.7224V19.7516V21.2905V22.8137V24.3526V25.8758H53.1835H51.6603H50.1214H48.5982H47.0593H45.5361H43.9972V27.4147H45.5361V28.9379H47.0593H48.5982H50.1214V27.4147H51.6603H53.1835H54.7224V28.9379V30.4768H53.1835V32H51.6603H50.1214H48.5982H47.0593H45.5361H43.9972H42.474H40.9351V30.4768H39.4119ZM43.9972 22.8137H45.5361H47.0593H48.5982H50.1214V21.2905H48.5982V19.7516H47.0593H45.5361V21.2905H43.9972V22.8137ZM56.2456 30.4768V28.9379V27.4147V25.8758V24.3526V22.8137V21.2905V19.7516V18.2284H57.7688V16.6895H59.3077H60.8309H62.3698H63.893H65.432H66.9552H68.4941H70.0173V18.2284H71.5562V19.7516V21.2905V22.8137V24.3526V25.8758H70.0173H68.4941H66.9552H65.432H63.893H62.3698H60.8309V27.4147H62.3698V28.9379H63.893H65.432H66.9552V27.4147H68.4941H70.0173H71.5562V28.9379V30.4768H70.0173V32H68.4941H66.9552H65.432H63.893H62.3698H60.8309H59.3077H57.7688V30.4768H56.2456ZM60.8309 22.8137H62.3698H63.893H65.432H66.9552V21.2905H65.432V19.7516H63.893H62.3698V21.2905H60.8309V22.8137ZM73.0794 13.6273V12.1041V10.5652H74.6026H76.1415H77.6647H79.2036V12.1041V13.6273V15.1663V16.6895V18.2284V19.7516V21.2905V22.8137V24.3526V25.8758V27.4147V28.9379H80.7268V30.4768V32H79.2036H77.6647H76.1415H74.6026V30.4768V28.9379V27.4147V25.8758V24.3526V22.8137V21.2905V19.7516V18.2284V16.6895V15.1663V13.6273H73.0794ZM82.2814 32V30.4768V28.9379H83.8046V27.4147V25.8758V24.3526V22.8137V21.2905V19.7516H82.2814V18.2284V16.6895H83.8046H85.3435H86.8667H88.4056H89.9288V18.2284V19.7516H88.4056V21.2905V22.8137V24.3526V25.8758V27.4147V28.9379H89.9288V30.4768V32H88.4056H86.8667H85.3435H83.8046H82.2814ZM83.8046 13.6273V12.1041V10.5652H85.3435H86.8667H88.4056V12.1041V13.6273H86.8667H85.3435H83.8046ZM91.4834 32V30.4768V28.9379H93.0066V27.4147V25.8758V24.3526V22.8137V21.2905V19.7516H91.4834V18.2284V16.6895H93.0066H94.5455H96.0687V18.2284H97.6077V16.6895H99.1309H100.67H102.193H103.732H105.255H106.794V18.2284H108.317V19.7516V21.2905V22.8137V24.3526V25.8758V27.4147V28.9379H109.856V30.4768V32H108.317H106.794H105.255H103.732H102.193V30.4768V28.9379H103.732V27.4147V25.8758V24.3526V22.8137V21.2905H102.193V19.7516H100.67H99.1309V21.2905H97.6077V22.8137V24.3526V25.8758V27.4147V28.9379V30.4768V32H96.0687H94.5455H93.0066H91.4834ZM111.395 36.601V35.0778V33.5389H112.918H114.457H115.98V35.0778H117.519H119.042H120.581H122.105V33.5389V32H120.581H119.042H117.519H115.98H114.457H112.918V30.4768H111.395V28.9379V27.4147V25.8758V24.3526V22.8137V21.2905V19.7516V18.2284H112.918V16.6895H114.457H115.98H117.519H119.042H120.581H122.105V18.2284H123.643V16.6895H125.167H126.706H128.229V18.2284V19.7516H126.706V21.2905V22.8137V24.3526V25.8758V27.4147V28.9379V30.4768V32V33.5389V35.0778V36.601H125.167V38.1399H123.643H122.105H120.581H119.042H117.519H115.98H114.457H112.918V36.601H111.395ZM115.98 27.4147H117.519V28.9379H119.042H120.581V27.4147H122.105V25.8758V24.3526V22.8137V21.2905H120.581V19.7516H119.042H117.519V21.2905H115.98V22.8137V24.3526V25.8758V27.4147Z" fill="#FFEBD3"/>
<path d="M142.016 32V30.4768V28.9379H143.539V27.4147V25.8758V24.3526V22.8137V21.2905V19.7516V18.2284V16.6895V15.1663V13.6273H142.016V12.1041V10.5652H143.539H145.078H146.601H148.14H149.664V12.1041V13.6273H148.14V15.1663V16.6895V18.2284V19.7516V21.2905V22.8137V24.3526V25.8758V27.4147V28.9379H149.664H151.202H152.726H154.265H155.788V27.4147H157.327H158.85V28.9379V30.4768V32H157.327H155.788H154.265H152.726H151.202H149.664H148.14H146.601H145.078H143.539H142.016ZM160.389 30.4768V28.9379V27.4147V25.8758V24.3526V22.8137V21.2905V19.7516V18.2284H161.912V16.6895H163.451H164.974H166.513H168.036H169.575H171.098H172.637H174.16V18.2284H175.699V19.7516V21.2905V22.8137V24.3526V25.8758V27.4147V28.9379V30.4768H174.16V32H172.637H171.098H169.575H168.036H166.513H164.974H163.451H161.912V30.4768H160.389ZM164.974 27.4147H166.513V28.9379H168.036H169.575V27.4147H171.098V25.8758V24.3526V22.8137V21.2905H169.575V19.7516H168.036H166.513V21.2905H164.974V22.8137V24.3526V25.8758V27.4147ZM177.223 30.4768V28.9379V27.4147H178.746H180.285H181.808V28.9379H183.347H184.87V27.4147V25.8758H183.347H181.808H180.285V24.3526H178.746H177.223V22.8137V21.2905V19.7516V18.2284H178.746V16.6895H180.285H181.808H183.347H184.87H186.409H187.932V18.2284H189.471V19.7516V21.2905H187.932H186.409H184.87V19.7516H183.347H181.808V21.2905V22.8137H183.347H184.87H186.409H187.932V24.3526H189.471V25.8758V27.4147V28.9379V30.4768H187.932V32H186.409H184.87H183.347H181.808H180.285H178.746V30.4768H177.223ZM191.01 19.7516V18.2284V16.6895H192.533V15.1663V13.6273H191.01V12.1041V10.5652H192.533H194.072H195.595H197.134V12.1041V13.6273V15.1663V16.6895H198.657H200.196V18.2284V19.7516H198.657H197.134V21.2905V22.8137V24.3526V25.8758V27.4147V28.9379H198.657V27.4147H200.196H201.719H203.258V28.9379V30.4768H201.719V32H200.196H198.657H197.134H195.595H194.072V30.4768H192.533V28.9379V27.4147V25.8758V24.3526V22.8137V21.2905V19.7516H191.01ZM206.32 16.6895V15.1663V13.6273H207.859V12.1041H209.382V10.5652H210.921H212.445H213.984H215.507H217.046H218.569V12.1041H220.108V13.6273H221.631V15.1663V16.6895V18.2284V19.7516V21.2905H220.108V22.8137H218.569V24.3526H217.046H215.507V25.8758H213.984H212.445V24.3526V22.8137H213.984V21.2905H215.507H217.046V19.7516H218.569V18.2284V16.6895V15.1663H217.046V13.6273H215.507H213.984H212.445H210.921V15.1663H209.382V16.6895H207.859H206.32ZM210.921 32V30.4768V28.9379H212.445H213.984V30.4768V32H212.445H210.921Z" fill="#FE3989"/>
<path d="M22.5781 167.627V166.104V164.565H24.1013H25.6402H27.1634H28.7023H30.2255V166.104V167.627H28.7023V169.166V170.689V172.228V173.752V175.29V176.814V178.353V179.876H30.2255V181.415H31.7645V179.876H33.2877V178.353H34.8266H36.3498V179.876H37.8887V181.415H39.4119V179.876H40.9508V178.353V176.814V175.29V173.752V172.228V170.689V169.166V167.627H39.4119V166.104V164.565H40.9508H42.474H44.0129H45.5361H47.075V166.104V167.627H45.5361V169.166V170.689V172.228V173.752V175.29V176.814V178.353V179.876V181.415V182.938H44.0129V184.477H42.474V186H40.9508H39.4119H37.8887V184.477H36.3498V182.938H34.8266H33.2877V184.477H31.7645V186H30.2255H28.7023H27.1634V184.477H25.6402V182.938H24.1013V181.415V179.876V178.353V176.814V175.29V173.752V172.228V170.689V169.166V167.627H22.5781ZM48.6139 184.477V182.938V181.415V179.876V178.353V176.814V175.29V173.752V172.228H50.1371V170.689H51.676H53.1992H54.7381H56.2613H57.8002H59.3234H60.8623H62.3855V172.228H63.9245V173.752V175.29V176.814V178.353V179.876H62.3855H60.8623H59.3234H57.8002H56.2613H54.7381H53.1992V181.415H54.7381V182.938H56.2613H57.8002H59.3234V181.415H60.8623H62.3855H63.9245V182.938V184.477H62.3855V186H60.8623H59.3234H57.8002H56.2613H54.7381H53.1992H51.676H50.1371V184.477H48.6139ZM53.1992 176.814H54.7381H56.2613H57.8002H59.3234V175.29H57.8002V173.752H56.2613H54.7381V175.29H53.1992V176.814ZM70.6897 163.392C70.4968 164.142 70.2502 164.957 69.9501 165.836C69.6499 166.715 69.3176 167.594 68.9531 168.473C68.6101 169.33 68.267 170.145 67.924 170.917H65.8336C65.9837 170.317 66.1337 169.673 66.2838 168.987C66.4553 168.301 66.6054 167.615 66.7341 166.929C66.8841 166.222 67.0128 165.536 67.12 164.871C67.2486 164.206 67.3558 163.595 67.4416 163.038H70.4646L70.6897 163.392ZM71.0694 173.752V172.228V170.689H72.5926H74.1315H75.6547H77.1936H78.7168V172.228V173.752H77.1936V175.29V176.814V178.353V179.876H78.7168V181.415H80.2557H81.7789V179.876H83.3178V178.353V176.814V175.29V173.752H81.7789V172.228V170.689H83.3178H84.841H86.3799H87.9031H89.442V172.228V173.752H87.9031V175.29V176.814V178.353V179.876V181.415H86.3799V182.938H84.841V184.477H83.3178V186H81.7789H80.2557H78.7168H77.1936V184.477H75.6547V182.938H74.1315V181.415H72.5926V179.876V178.353V176.814V175.29V173.752H71.0694ZM90.9809 184.477V182.938V181.415V179.876V178.353V176.814V175.29V173.752V172.228H92.5041V170.689H94.043H95.5662H97.1052H98.6284H100.167H101.69H103.229H104.753V172.228H106.291V173.752V175.29V176.814V178.353V179.876H104.753H103.229H101.69H100.167H98.6284H97.1052H95.5662V181.415H97.1052V182.938H98.6284H100.167H101.69V181.415H103.229H104.753H106.291V182.938V184.477H104.753V186H103.229H101.69H100.167H98.6284H97.1052H95.5662H94.043H92.5041V184.477H90.9809ZM95.5662 176.814H97.1052H98.6284H100.167H101.69V175.29H100.167V173.752H98.6284H97.1052V175.29H95.5662V176.814ZM120.063 190.601V189.078V187.539H121.586H123.125H124.648V189.078H126.187H127.711H129.249H130.773V187.539V186H129.249H127.711H126.187H124.648H123.125H121.586V184.477H120.063V182.938V181.415V179.876V178.353V176.814V175.29V173.752V172.228H121.586V170.689H123.125H124.648H126.187H127.711H129.249H130.773V172.228H132.312V170.689H133.835H135.374H136.897V172.228V173.752H135.374V175.29V176.814V178.353V179.876V181.415V182.938V184.477V186V187.539V189.078V190.601H133.835V192.14H132.312H130.773H129.249H127.711H126.187H124.648H123.125H121.586V190.601H120.063ZM124.648 181.415H126.187V182.938H127.711H129.249V181.415H130.773V179.876V178.353V176.814V175.29H129.249V173.752H127.711H126.187V175.29H124.648V176.814V178.353V179.876V181.415ZM138.436 184.477V182.938V181.415V179.876V178.353V176.814V175.29V173.752V172.228H139.959V170.689H141.498H143.021H144.56H146.083H147.622H149.145H150.684H152.207V172.228H153.746V173.752V175.29V176.814V178.353V179.876V181.415V182.938V184.477H152.207V186H150.684H149.145H147.622H146.083H144.56H143.021H141.498H139.959V184.477H138.436ZM143.021 181.415H144.56V182.938H146.083H147.622V181.415H149.145V179.876V178.353V176.814V175.29H147.622V173.752H146.083H144.56V175.29H143.021V176.814V178.353V179.876V181.415ZM155.27 173.752V172.228V170.689H156.793V169.166V167.627H155.27V166.104V164.565H156.793H158.332H159.855H161.394V166.104V167.627V169.166V170.689H162.917H164.456V172.228V173.752H162.917H161.394V175.29V176.814V178.353V179.876V181.415V182.938H162.917V181.415H164.456H165.979H167.518V182.938V184.477H165.979V186H164.456H162.917H161.394H159.855H158.332V184.477H156.793V182.938V181.415V179.876V178.353V176.814V175.29V173.752H155.27ZM181.305 173.752V172.228V170.689H182.829H184.367H185.891H187.43H188.953V172.228V173.752H187.43V175.29V176.814V178.353H188.953V179.876H190.492H192.015V178.353H193.554V176.814V175.29V173.752H192.015V172.228V170.689H193.554H195.077H196.616H198.139H199.678V172.228V173.752H198.139V175.29V176.814V178.353V179.876H196.616V181.415H195.077V182.938H193.554V184.477H192.015V186H190.492V187.539H188.953V189.078H187.43V190.601H185.891H184.367H182.829V189.078V187.539V186H184.367H185.891V184.477H187.43V182.938H185.891V181.415H184.367V179.876H182.829V178.353V176.814V175.29V173.752H181.305ZM201.217 184.477V182.938V181.415V179.876V178.353V176.814V175.29V173.752V172.228H202.74V170.689H204.279H205.802H207.341H208.864H210.403H211.926H213.465H214.989V172.228H216.527V173.752V175.29V176.814V178.353V179.876V181.415V182.938V184.477H214.989V186H213.465H211.926H210.403H208.864H207.341H205.802H204.279H202.74V184.477H201.217ZM205.802 181.415H207.341V182.938H208.864H210.403V181.415H211.926V179.876V178.353V176.814V175.29H210.403V173.752H208.864H207.341V175.29H205.802V176.814V178.353V179.876V181.415ZM218.051 173.752V172.228V170.689H219.574H221.113H222.636H224.175H225.698V172.228V173.752H224.175V175.29V176.814V178.353V179.876V181.415H225.698V182.938H227.237V181.415H228.76V179.876H230.299V178.353V176.814V175.29V173.752H228.76V172.228V170.689H230.299H231.822H233.361H234.884H236.423V172.228V173.752H234.884V175.29V176.814V178.353V179.876V181.415V182.938H236.423V184.477V186H234.884H233.361H231.822H230.299V184.477H228.76V186H227.237H225.698H224.175H222.636V184.477H221.113V182.938H219.574V181.415V179.876V178.353V176.814V175.29V173.752H218.051Z" fill="#FFEBD3"/>
<path d="M211 237.477V235.938V234.415V232.876V231.353V229.814V228.29V226.752V225.228V223.689V222.166V220.627V219.104H212.523V217.565H214.062H215.585H217.124H218.647H220.186H221.71H223.248H224.772H226.311V219.104H227.834V220.627V222.166V223.689H226.311H224.772H223.248V222.166H221.71V220.627H220.186H218.647H217.124V222.166H215.585V223.689V225.228V226.752V228.29V229.814V231.353V232.876V234.415H217.124V235.938H218.647H220.186H221.71V234.415H223.248V232.876V231.353H224.772H226.311H227.834V232.876V234.415V235.938V237.477H226.311V239H224.772H223.248H221.71H220.186H218.647H217.124H215.585H214.062H212.523V237.477H211ZM229.373 237.477V235.938V234.415V232.876V231.353V229.814V228.29V226.752V225.228H230.896V223.689H232.435H233.958H235.497H237.02H238.559H240.082H241.621H243.144V225.228H244.683V226.752V228.29V229.814V231.353V232.876V234.415V235.938V237.477H243.144V239H241.621H240.082H238.559H237.02H235.497H233.958H232.435H230.896V237.477H229.373ZM233.958 234.415H235.497V235.938H237.02H238.559V234.415H240.082V232.876V231.353V229.814V228.29H238.559V226.752H237.02H235.497V228.29H233.958V229.814V231.353V232.876V234.415ZM246.206 226.752V225.228V223.689H247.73H249.269H250.792H252.331H253.854V225.228V226.752H252.331V228.29V229.814V231.353V232.876H253.854V234.415H255.393H256.916V232.876H258.455V231.353V229.814V228.29V226.752H256.916V225.228V223.689H258.455H259.978H261.517H263.04H264.579V225.228V226.752H263.04V228.29V229.814V231.353V232.876V234.415H261.517V235.938H259.978V237.477H258.455V239H256.916H255.393H253.854H252.331V237.477H250.792V235.938H249.269V234.415H247.73V232.876V231.353V229.814V228.29V226.752H246.206ZM266.118 237.477V235.938V234.415V232.876V231.353V229.814V228.29V226.752V225.228H267.641V223.689H269.18H270.703H272.242H273.765H275.304H276.827H278.366H279.89V225.228H281.429V226.752V228.29V229.814V231.353V232.876H279.89H278.366H276.827H275.304H273.765H272.242H270.703V234.415H272.242V235.938H273.765H275.304H276.827V234.415H278.366H279.89H281.429V235.938V237.477H279.89V239H278.366H276.827H275.304H273.765H272.242H270.703H269.18H267.641V237.477H266.118ZM270.703 229.814H272.242H273.765H275.304H276.827V228.29H275.304V226.752H273.765H272.242V228.29H270.703V229.814ZM282.952 239V237.477V235.938H284.475V234.415V232.876V231.353V229.814V228.29V226.752H282.952V225.228V223.689H284.475H286.014V225.228H287.537V223.689H289.076H290.599H292.138H293.661H295.2V225.228H296.723V226.752V228.29V229.814H295.2H293.661H292.138V228.29V226.752H290.599V228.29H289.076V229.814V231.353V232.876V234.415V235.938V237.477V239H287.537H286.014H284.475H282.952ZM298.278 237.477V235.938V234.415V232.876V231.353V229.814V228.29V226.752V225.228H299.801V223.689H301.34H302.863H304.402H305.925H307.464H308.988H310.526H312.05V225.228H313.589V226.752V228.29V229.814V231.353V232.876H312.05H310.526H308.988H307.464H305.925H304.402H302.863V234.415H304.402V235.938H305.925H307.464H308.988V234.415H310.526H312.05H313.589V235.938V237.477H312.05V239H310.526H308.988H307.464H305.925H304.402H302.863H301.34H299.801V237.477H298.278ZM302.863 229.814H304.402H305.925H307.464H308.988V228.29H307.464V226.752H305.925H304.402V228.29H302.863V229.814ZM315.112 237.477V235.938V234.415V232.876V231.353V229.814V228.29V226.752V225.228H316.635V223.689H318.174H319.697H321.236H322.759H324.298H325.821V222.166V220.627H324.298V219.104V217.565H325.821H327.36H328.883H330.422H331.945V219.104V220.627H330.422V222.166V223.689V225.228V226.752V228.29V229.814V231.353V232.876V234.415V235.938H331.945V237.477V239H330.422H328.883H327.36H325.821H324.298H322.759H321.236H319.697H318.174H316.635V237.477H315.112ZM319.697 234.415H321.236V235.938H322.759H324.298H325.821V234.415V232.876V231.353V229.814V228.29V226.752H324.298H322.759H321.236V228.29H319.697V229.814V231.353V232.876V234.415Z" fill="#FE3989"/>
<line x1="-161" y1="40.665" x2="229" y2="40.665" stroke="#FFEBD3" stroke-opacity="0.4" stroke-width="0.67"/>
<line x1="-146" y1="194.665" x2="244" y2="194.665" stroke="#FFEBD3" stroke-opacity="0.4" stroke-width="0.67"/>
<line x1="115" y1="117.665" x2="449" y2="117.665" stroke="#FFEBD3" stroke-opacity="0.4" stroke-width="0.67"/>
<path d="M122.449 109V107.477V105.938H123.972V104.415V102.876V101.353V99.8137V98.2905V96.7516V95.2284V93.6895V92.1663V90.6273H122.449V89.1041V87.5652H123.972H125.511H127.035H128.573V89.1041V90.6273H130.097V92.1663V93.6895H131.636V95.2284V96.7516H133.159V98.2905V99.8137H134.698V98.2905V96.7516V95.2284V93.6895V92.1663V90.6273H133.159V89.1041V87.5652H134.698H136.221H137.76H139.283H140.822V89.1041V90.6273H139.283V92.1663V93.6895V95.2284V96.7516V98.2905V99.8137V101.353V102.876V104.415V105.938H140.822V107.477V109H139.283H137.76H136.221H134.698H133.159V107.477V105.938V104.415V102.876H131.636V101.353V99.8137H130.097V98.2905V96.7516H128.573V98.2905V99.8137V101.353V102.876V104.415V105.938H130.097V107.477V109H128.573H127.035H125.511H123.972H122.449ZM142.361 107.477V105.938V104.415V102.876V101.353V99.8137V98.2905V96.7516V95.2284H143.884V93.6895H145.423H146.946H148.485H150.008H151.547H153.07H154.609H156.132V95.2284H157.671V96.7516V98.2905V99.8137V101.353V102.876V104.415V105.938V107.477H156.132V109H154.609H153.07H151.547H150.008H148.485H146.946H145.423H143.884V107.477H142.361ZM146.946 104.415H148.485V105.938H150.008H151.547V104.415H153.07V102.876V101.353V99.8137V98.2905H151.547V96.7516H150.008H148.485V98.2905H146.946V99.8137V101.353V102.876V104.415ZM171.443 109V107.477V105.938H172.966V104.415V102.876V101.353V99.8137V98.2905V96.7516H171.443V95.2284V93.6895H172.966H174.505H176.028V95.2284H177.567V93.6895H179.09H180.629H182.153H183.691H185.215H186.754V95.2284H188.277V96.7516V98.2905V99.8137V101.353V102.876V104.415V105.938H189.816V107.477V109H188.277H186.754H185.215H183.691H182.153V107.477V105.938H183.691V104.415V102.876V101.353V99.8137V98.2905H182.153V96.7516H180.629H179.09V98.2905H177.567V99.8137V101.353V102.876V104.415V105.938V107.477V109H176.028H174.505H172.966H171.443ZM191.355 107.477V105.938V104.415V102.876V101.353V99.8137V98.2905V96.7516V95.2284H192.878V93.6895H194.417H195.94H197.479H199.002H200.541H202.064H203.603H205.126V95.2284H206.665V96.7516V98.2905V99.8137V101.353V102.876H205.126H203.603H202.064H200.541H199.002H197.479H195.94V104.415H197.479V105.938H199.002H200.541H202.064V104.415H203.603H205.126H206.665V105.938V107.477H205.126V109H203.603H202.064H200.541H199.002H197.479H195.94H194.417H192.878V107.477H191.355ZM195.94 99.8137H197.479H199.002H200.541H202.064V98.2905H200.541V96.7516H199.002H197.479V98.2905H195.94V99.8137ZM208.188 107.477V105.938V104.415V102.876V101.353V99.8137V98.2905V96.7516V95.2284H209.711V93.6895H211.25H212.774H214.312H215.836H217.375H218.898H220.437H221.96V95.2284H223.499V96.7516V98.2905V99.8137V101.353V102.876H221.96H220.437H218.898H217.375H215.836H214.312H212.774V104.415H214.312V105.938H215.836H217.375H218.898V104.415H220.437H221.96H223.499V105.938V107.477H221.96V109H220.437H218.898H217.375H215.836H214.312H212.774H211.25H209.711V107.477H208.188ZM212.774 99.8137H214.312H215.836H217.375H218.898V98.2905H217.375V96.7516H215.836H214.312V98.2905H212.774V99.8137ZM225.022 107.477V105.938V104.415V102.876V101.353V99.8137V98.2905V96.7516V95.2284H226.545V93.6895H228.084H229.607H231.146H232.669H234.208H235.732V92.1663V90.6273H234.208V89.1041V87.5652H235.732H237.27H238.794H240.333H241.856V89.1041V90.6273H240.333V92.1663V93.6895V95.2284V96.7516V98.2905V99.8137V101.353V102.876V104.415V105.938H241.856V107.477V109H240.333H238.794H237.27H235.732H234.208H232.669H231.146H229.607H228.084H226.545V107.477H225.022ZM229.607 104.415H231.146V105.938H232.669H234.208H235.732V104.415V102.876V101.353V99.8137V98.2905V96.7516H234.208H232.669H231.146V98.2905H229.607V99.8137V101.353V102.876V104.415ZM255.643 96.7516V95.2284V93.6895H257.166V92.1663V90.6273H255.643V89.1041V87.5652H257.166H258.705H260.228H261.767V89.1041V90.6273V92.1663V93.6895H263.291H264.829V95.2284V96.7516H263.291H261.767V98.2905V99.8137V101.353V102.876V104.415V105.938H263.291V104.415H264.829H266.353H267.892V105.938V107.477H266.353V109H264.829H263.291H261.767H260.228H258.705V107.477H257.166V105.938V104.415V102.876V101.353V99.8137V98.2905V96.7516H255.643ZM269.43 107.477V105.938V104.415V102.876V101.353V99.8137V98.2905V96.7516V95.2284H270.954V93.6895H272.493H274.016H275.555H277.078H278.617H280.14H281.679H283.202V95.2284H284.741V96.7516V98.2905V99.8137V101.353V102.876V104.415V105.938V107.477H283.202V109H281.679H280.14H278.617H277.078H275.555H274.016H272.493H270.954V107.477H269.43ZM274.016 104.415H275.555V105.938H277.078H278.617V104.415H280.14V102.876V101.353V99.8137V98.2905H278.617V96.7516H277.078H275.555V98.2905H274.016V99.8137V101.353V102.876V104.415ZM298.513 96.7516V95.2284V93.6895H300.036H301.575H303.098H304.637H306.16V95.2284V96.7516H304.637V98.2905V99.8137V101.353V102.876H306.16V104.415H307.699V102.876H309.222V101.353H310.761H312.284V102.876H313.823V104.415H315.346V102.876H316.885V101.353V99.8137V98.2905V96.7516H315.346V95.2284V93.6895H316.885H318.409H319.947H321.471H323.01V95.2284V96.7516H321.471V98.2905V99.8137V101.353V102.876V104.415H319.947V105.938H318.409V107.477H316.885V109H315.346H313.823H312.284V107.477H310.761H309.222V109H307.699H306.16H304.637V107.477H303.098V105.938H301.575V104.415H300.036V102.876V101.353V99.8137V98.2905V96.7516H298.513ZM324.548 107.477V105.938V104.415V102.876V101.353V99.8137V98.2905V96.7516V95.2284H326.072V93.6895H327.611H329.134H330.673H332.196H333.735H335.258H336.797H338.32V95.2284H339.859V96.7516V98.2905V99.8137V101.353V102.876V104.415V105.938V107.477H338.32V109H336.797H335.258H333.735H332.196H330.673H329.134H327.611H326.072V107.477H324.548ZM329.134 104.415H330.673V105.938H332.196H333.735V104.415H335.258V102.876V101.353V99.8137V98.2905H333.735V96.7516H332.196H330.673V98.2905H329.134V99.8137V101.353V102.876V104.415ZM341.382 109V107.477V105.938H342.905V104.415V102.876V101.353V99.8137V98.2905V96.7516H341.382V95.2284V93.6895H342.905H344.444V95.2284H345.967V93.6895H347.506H349.03H350.569H352.092H353.631V95.2284H355.154V96.7516V98.2905V99.8137H353.631H352.092H350.569V98.2905V96.7516H349.03V98.2905H347.506V99.8137V101.353V102.876V104.415V105.938V107.477V109H345.967H344.444H342.905H341.382ZM356.708 109V107.477V105.938H358.232V104.415V102.876V101.353V99.8137V98.2905V96.7516H356.708V95.2284V93.6895H358.232H359.771V95.2284H361.294V93.6895H362.833H364.356H365.895H367.418H368.957V95.2284H370.48V96.7516V98.2905V99.8137H368.957H367.418H365.895V98.2905V96.7516H364.356V98.2905H362.833V99.8137V101.353V102.876V104.415V105.938V107.477V109H361.294H359.771H358.232H356.708ZM372.035 96.7516V95.2284V93.6895H373.558H375.097H376.62H378.159H379.682V95.2284V96.7516H378.159V98.2905V99.8137V101.353H379.682V102.876H381.221H382.744V101.353H384.283V99.8137V98.2905V96.7516H382.744V95.2284V93.6895H384.283H385.806H387.345H388.868H390.407V95.2284V96.7516H388.868V98.2905V99.8137V101.353V102.876H387.345V104.415H385.806V105.938H384.283V107.477H382.744V109H381.221V110.539H379.682V112.078H378.159V113.601H376.62H375.097H373.558V112.078V110.539V109H375.097H376.62V107.477H378.159V105.938H376.62V104.415H375.097V102.876H373.558V101.353V99.8137V98.2905V96.7516H372.035Z" fill="#FFEBD3"/>
<path d="M275 8.95703V8.47852V8V7.52637V7.04785V6.57422V6.0957V5.62207V5.14355V4.66992V4.19141V3.71777V3.23926V2.76562V2.28711V1.81348V1.33496V0.861328V0.382812H275.474H275.952H276.426H276.904V0.861328V1.33496H276.426H275.952V1.81348V2.28711V2.76562V3.23926V3.71777V4.19141V4.66992V5.14355V5.62207V6.0957V6.57422V7.04785V7.52637V8H276.426H276.904V8.47852V8.95703H276.426H275.952H275.474H275ZM278.33 8V7.52637V7.04785V6.57422V6.0957V5.62207V5.14355V4.66992V4.19141V3.71777V3.23926V2.76562V2.28711V1.81348V1.33496H278.804H279.282V1.81348V2.28711V2.76562V3.23926V3.71777H279.756V3.23926H280.234H280.708H281.187H281.66H282.139V3.71777H282.612V4.19141H283.091V4.66992V5.14355V5.62207V6.0957V6.57422V7.04785H282.612V7.52637H282.139V8H281.66H281.187H280.708H280.234H279.756H279.282H278.804H278.33ZM279.282 7.04785H279.756H280.234H280.708H281.187H281.66V6.57422H282.139V6.0957V5.62207V5.14355V4.66992H281.66V4.19141H281.187H280.708H280.234H279.756V4.66992H279.282V5.14355V5.62207V6.0957V6.57422V7.04785ZM287.847 5.14355V4.66992V4.19141H288.325H288.799H289.277H289.751H290.229V4.66992V5.14355H289.751H289.277H288.799H288.325H287.847ZM294.512 8V7.52637V7.04785H294.985H295.464H295.938V6.57422V6.0957V5.62207V5.14355V4.66992V4.19141V3.71777V3.23926V2.76562H295.464H294.985H294.512V2.28711V1.81348H294.985H295.464H295.938V1.33496H296.416H296.89V1.81348V2.28711V2.76562V3.23926V3.71777V4.19141V4.66992V5.14355V5.62207V6.0957V6.57422V7.04785H297.368H297.842H298.32V7.52637V8H297.842H297.368H296.89H296.416H295.938H295.464H294.985H294.512ZM299.751 8.95703V8.47852V8H300.229H300.703V7.52637V7.04785V6.57422V6.0957V5.62207V5.14355V4.66992V4.19141V3.71777V3.23926V2.76562V2.28711V1.81348V1.33496H300.229H299.751V0.861328V0.382812H300.229H300.703H301.182H301.655V0.861328V1.33496V1.81348V2.28711V2.76562V3.23926V3.71777V4.19141V4.66992V5.14355V5.62207V6.0957V6.57422V7.04785V7.52637V8V8.47852V8.95703H301.182H300.703H300.229H299.751ZM306.416 8V7.52637V7.04785V6.57422V6.0957V5.62207V5.14355V4.66992V4.19141V3.71777V3.23926V2.76562V2.28711V1.81348V1.33496H306.89H307.368V1.81348V2.28711V2.76562V3.23926V3.71777V4.19141H307.842H308.32H308.794H309.272H309.746H310.225V3.71777V3.23926V2.76562V2.28711V1.81348V1.33496H310.698H311.177V1.81348V2.28711V2.76562V3.23926V3.71777V4.19141V4.66992V5.14355V5.62207V6.0957V6.57422V7.04785V7.52637V8H310.698H310.225V7.52637V7.04785V6.57422V6.0957V5.62207V5.14355H309.746H309.272H308.794H308.32H307.842H307.368V5.62207V6.0957V6.57422V7.04785V7.52637V8H306.89H306.416ZM311.65 7.04785V6.57422V6.0957V5.62207V5.14355V4.66992V4.19141H312.124V3.71777H312.603V3.23926H313.076H313.555H314.028H314.507H314.98H315.459V3.71777H315.933V4.19141H316.411V4.66992V5.14355V5.62207V6.0957H315.933H315.459H314.98H314.507H314.028H313.555H313.076H312.603V6.57422H313.076V7.04785H313.555H314.028H314.507H314.98H315.459V6.57422H315.933H316.411V7.04785V7.52637H315.933V8H315.459H314.98H314.507H314.028H313.555H313.076H312.603V7.52637H312.124V7.04785H311.65ZM312.603 5.14355H313.076H313.555H314.028H314.507H314.98H315.459V4.66992H314.98V4.19141H314.507H314.028H313.555H313.076V4.66992H312.603V5.14355ZM316.885 8V7.52637V7.04785V6.57422V6.0957V5.62207V5.14355V4.66992V4.19141V3.71777V3.23926H317.358H317.837V3.71777H318.311V3.23926H318.789H319.263H319.741V3.71777H320.215V4.19141V4.66992H319.741H319.263V4.19141H318.789H318.311V4.66992H317.837V5.14355V5.62207V6.0957V6.57422V7.04785V7.52637V8H317.358H316.885ZM320.693 7.04785V6.57422V6.0957V5.62207V5.14355V4.66992V4.19141H321.167V3.71777H321.646V3.23926H322.119H322.598H323.071H323.55H324.023H324.502V3.71777H324.976V4.19141H325.454V4.66992V5.14355V5.62207V6.0957H324.976H324.502H324.023H323.55H323.071H322.598H322.119H321.646V6.57422H322.119V7.04785H322.598H323.071H323.55H324.023H324.502V6.57422H324.976H325.454V7.04785V7.52637H324.976V8H324.502H324.023H323.55H323.071H322.598H322.119H321.646V7.52637H321.167V7.04785H320.693ZM321.646 5.14355H322.119H322.598H323.071H323.55H324.023H324.502V4.66992H324.023V4.19141H323.55H323.071H322.598H322.119V4.66992H321.646V5.14355ZM329.736 4.66992V4.19141V3.71777V3.23926H330.21H330.688V3.71777V4.19141H331.162V4.66992V5.14355H331.641V5.62207V6.0957H332.114H332.593V5.62207V5.14355H333.066V4.66992V4.19141H333.545V3.71777V3.23926H334.019H334.497V3.71777V4.19141V4.66992H334.019V5.14355V5.62207H333.545V6.0957V6.57422H333.066V7.04785V7.52637H332.593V8V8.47852H332.114V8.95703V9.43066H331.641V9.90918H331.162H330.688H330.21V9.43066V8.95703H330.688H331.162V8.47852V8H331.641V7.52637H331.162V7.04785V6.57422H330.688V6.0957V5.62207H330.21V5.14355V4.66992H329.736ZM334.971 7.04785V6.57422V6.0957V5.62207V5.14355V4.66992V4.19141H335.444V3.71777H335.923V3.23926H336.396H336.875H337.349H337.827H338.301H338.779V3.71777H339.253V4.19141H339.731V4.66992V5.14355V5.62207V6.0957V6.57422V7.04785H339.253V7.52637H338.779V8H338.301H337.827H337.349H336.875H336.396H335.923V7.52637H335.444V7.04785H334.971ZM335.923 6.57422H336.396V7.04785H336.875H337.349H337.827H338.301V6.57422H338.779V6.0957V5.62207V5.14355V4.66992H338.301V4.19141H337.827H337.349H336.875H336.396V4.66992H335.923V5.14355V5.62207V6.0957V6.57422ZM340.205 7.52637V7.04785V6.57422V6.0957V5.62207V5.14355V4.66992V4.19141V3.71777V3.23926H340.679H341.157V3.71777V4.19141V4.66992V5.14355V5.62207V6.0957V6.57422V7.04785H341.631H342.109H342.583H343.062V6.57422H343.535V6.0957V5.62207V5.14355V4.66992V4.19141V3.71777V3.23926H344.014H344.487V3.71777V4.19141V4.66992V5.14355V5.62207V6.0957V6.57422V7.04785V7.52637V8H344.014H343.535V7.52637H343.062V8H342.583H342.109H341.631H341.157H340.679V7.52637H340.205ZM348.779 7.04785V6.57422V6.0957V5.62207V5.14355V4.66992V4.19141H349.253V3.71777H349.731V3.23926H350.205H350.684H351.157H351.636H352.109H352.588V3.71777H353.062V4.19141V4.66992H352.588H352.109V4.19141H351.636H351.157H350.684H350.205V4.66992H349.731V5.14355V5.62207V6.0957V6.57422H350.205V7.04785H350.684H351.157H351.636H352.109V6.57422V6.0957H352.588H353.062V6.57422V7.04785V7.52637H352.588V8H352.109H351.636H351.157H350.684H350.205H349.731V7.52637H349.253V7.04785H348.779ZM353.545 7.04785V6.57422V6.0957H354.019V5.62207H354.497V5.14355H354.971H355.449H355.923H356.401H356.875H357.354V4.66992H356.875V4.19141H356.401H355.923H355.449H354.971H354.497H354.019V3.71777V3.23926H354.497H354.971H355.449H355.923H356.401H356.875H357.354V3.71777H357.827V4.19141H358.306V4.66992V5.14355V5.62207V6.0957V6.57422V7.04785V7.52637V8H357.827H357.354V7.52637H356.875V8H356.401H355.923H355.449H354.971H354.497V7.52637H354.019V7.04785H353.545ZM354.971 7.04785H355.449H355.923H356.401H356.875V6.57422H357.354V6.0957H356.875H356.401H355.923H355.449H354.971V6.57422V7.04785ZM358.779 8V7.52637V7.04785V6.57422V6.0957V5.62207V5.14355V4.66992V4.19141V3.71777V3.23926H359.253H359.731V3.71777H360.205V3.23926H360.684H361.157H361.636H362.109H362.588V3.71777H363.062V4.19141H363.54V4.66992V5.14355V5.62207V6.0957V6.57422V7.04785V7.52637V8H363.062H362.588V7.52637V7.04785V6.57422V6.0957V5.62207V5.14355V4.66992H362.109V4.19141H361.636H361.157H360.684H360.205V4.66992H359.731V5.14355V5.62207V6.0957V6.57422V7.04785V7.52637V8H359.253H358.779ZM275 17.0479V16.5742V16.0957H275.474V15.6221H275.952V15.1436H276.426H276.904H277.378H277.856H278.33H278.809V14.6699H278.33V14.1914H277.856H277.378H276.904H276.426H275.952H275.474V13.7178V13.2393H275.952H276.426H276.904H277.378H277.856H278.33H278.809V13.7178H279.282V14.1914H279.761V14.6699V15.1436V15.6221V16.0957V16.5742V17.0479V17.5264V18H279.282H278.809V17.5264H278.33V18H277.856H277.378H276.904H276.426H275.952V17.5264H275.474V17.0479H275ZM276.426 17.0479H276.904H277.378H277.856H278.33V16.5742H278.809V16.0957H278.33H277.856H277.378H276.904H276.426V16.5742V17.0479ZM280.234 17.0479V16.5742V16.0957V15.6221V15.1436V14.6699V14.1914H280.708V13.7178H281.187V13.2393H281.66H282.139H282.612H283.091H283.564H284.043V13.7178H284.517V14.1914V14.6699H284.043H283.564V14.1914H283.091H282.612H282.139H281.66V14.6699H281.187V15.1436V15.6221V16.0957V16.5742H281.66V17.0479H282.139H282.612H283.091H283.564V16.5742V16.0957H284.043H284.517V16.5742V17.0479V17.5264H284.043V18H283.564H283.091H282.612H282.139H281.66H281.187V17.5264H280.708V17.0479H280.234ZM285 17.0479V16.5742V16.0957V15.6221V15.1436V14.6699V14.1914H285.474V13.7178H285.952V13.2393H286.426H286.904H287.378H287.856H288.33H288.809V13.7178H289.282V14.1914V14.6699H288.809H288.33V14.1914H287.856H287.378H286.904H286.426V14.6699H285.952V15.1436V15.6221V16.0957V16.5742H286.426V17.0479H286.904H287.378H287.856H288.33V16.5742V16.0957H288.809H289.282V16.5742V17.0479V17.5264H288.809V18H288.33H287.856H287.378H286.904H286.426H285.952V17.5264H285.474V17.0479H285ZM289.766 17.0479V16.5742V16.0957V15.6221V15.1436V14.6699V14.1914H290.239V13.7178H290.718V13.2393H291.191H291.67H292.144H292.622H293.096H293.574V13.7178H294.048V14.1914H294.526V14.6699V15.1436V15.6221V16.0957H294.048H293.574H293.096H292.622H292.144H291.67H291.191H290.718V16.5742H291.191V17.0479H291.67H292.144H292.622H293.096H293.574V16.5742H294.048H294.526V17.0479V17.5264H294.048V18H293.574H293.096H292.622H292.144H291.67H291.191H290.718V17.5264H290.239V17.0479H289.766ZM290.718 15.1436H291.191H291.67H292.144H292.622H293.096H293.574V14.6699H293.096V14.1914H292.622H292.144H291.67H291.191V14.6699H290.718V15.1436ZM295 17.5264V17.0479V16.5742H295.474H295.952V17.0479H296.426H296.904H297.378H297.856V16.5742V16.0957H297.378H296.904H296.426H295.952H295.474V15.6221H295V15.1436V14.6699V14.1914V13.7178H295.474V13.2393H295.952H296.426H296.904H297.378H297.856H298.33V13.7178H298.809V14.1914V14.6699H298.33H297.856V14.1914H297.378H296.904H296.426H295.952V14.6699V15.1436H296.426H296.904H297.378H297.856H298.33V15.6221H298.809V16.0957V16.5742V17.0479V17.5264H298.33V18H297.856H297.378H296.904H296.426H295.952H295.474V17.5264H295ZM299.287 17.5264V17.0479V16.5742H299.761H300.239V17.0479H300.713H301.191H301.665H302.144V16.5742V16.0957H301.665H301.191H300.713H300.239H299.761V15.6221H299.287V15.1436V14.6699V14.1914V13.7178H299.761V13.2393H300.239H300.713H301.191H301.665H302.144H302.617V13.7178H303.096V14.1914V14.6699H302.617H302.144V14.1914H301.665H301.191H300.713H300.239V14.6699V15.1436H300.713H301.191H301.665H302.144H302.617V15.6221H303.096V16.0957V16.5742V17.0479V17.5264H302.617V18H302.144H301.665H301.191H300.713H300.239H299.761V17.5264H299.287ZM307.383 17.0479V16.5742V16.0957H307.856V15.6221H308.335V15.1436H308.809H309.287H309.761H310.239H310.713H311.191V14.6699H310.713V14.1914H310.239H309.761H309.287H308.809H308.335H307.856V13.7178V13.2393H308.335H308.809H309.287H309.761H310.239H310.713H311.191V13.7178H311.665V14.1914H312.144V14.6699V15.1436V15.6221V16.0957V16.5742V17.0479V17.5264V18H311.665H311.191V17.5264H310.713V18H310.239H309.761H309.287H308.809H308.335V17.5264H307.856V17.0479H307.383ZM308.809 17.0479H309.287H309.761H310.239H310.713V16.5742H311.191V16.0957H310.713H310.239H309.761H309.287H308.809V16.5742V17.0479ZM312.617 12.2871V11.8135V11.335H313.091H313.569H314.043V11.8135V12.2871V12.7656V13.2393V13.7178V14.1914V14.6699V15.1436V15.6221V16.0957V16.5742V17.0479H314.521V17.5264V18H314.043H313.569H313.091V17.5264V17.0479V16.5742V16.0957V15.6221V15.1436V14.6699V14.1914V13.7178V13.2393V12.7656V12.2871H312.617ZM315 12.2871V11.8135V11.335H315.474H315.952H316.426V11.8135V12.2871V12.7656V13.2393V13.7178V14.1914V14.6699V15.1436V15.6221V16.0957V16.5742V17.0479H316.904V17.5264V18H316.426H315.952H315.474V17.5264V17.0479V16.5742V16.0957V15.6221V15.1436V14.6699V14.1914V13.7178V13.2393V12.7656V12.2871H315ZM321.191 14.1914V13.7178V13.2393H321.665V12.7656V12.2871V11.8135V11.335H322.144H322.617V11.8135V12.2871V12.7656V13.2393H323.096H323.569H324.048V13.7178V14.1914H323.569H323.096H322.617V14.6699V15.1436V15.6221V16.0957V16.5742V17.0479H323.096H323.569H324.048V17.5264V18H323.569H323.096H322.617H322.144V17.5264H321.665V17.0479V16.5742V16.0957V15.6221V15.1436V14.6699V14.1914H321.191ZM324.521 18V17.5264V17.0479V16.5742V16.0957V15.6221V15.1436V14.6699V14.1914V13.7178V13.2393V12.7656V12.2871V11.8135V11.335H324.995H325.474V11.8135V12.2871V12.7656V13.2393V13.7178H325.947V13.2393H326.426H326.899H327.378H327.852H328.33V13.7178H328.804V14.1914H329.282V14.6699V15.1436V15.6221V16.0957V16.5742V17.0479V17.5264V18H328.804H328.33V17.5264V17.0479V16.5742V16.0957V15.6221V15.1436V14.6699H327.852V14.1914H327.378H326.899H326.426H325.947V14.6699H325.474V15.1436V15.6221V16.0957V16.5742V17.0479V17.5264V18H324.995H324.521ZM329.756 17.0479V16.5742V16.0957V15.6221V15.1436V14.6699V14.1914H330.229V13.7178H330.708V13.2393H331.182H331.66H332.134H332.612H333.086H333.564V13.7178H334.038V14.1914H334.517V14.6699V15.1436V15.6221V16.0957H334.038H333.564H333.086H332.612H332.134H331.66H331.182H330.708V16.5742H331.182V17.0479H331.66H332.134H332.612H333.086H333.564V16.5742H334.038H334.517V17.0479V17.5264H334.038V18H333.564H333.086H332.612H332.134H331.66H331.182H330.708V17.5264H330.229V17.0479H329.756ZM330.708 15.1436H331.182H331.66H332.134H332.612H333.086H333.564V14.6699H333.086V14.1914H332.612H332.134H331.66H331.182V14.6699H330.708V15.1436ZM338.799 17.0479V16.5742V16.0957V15.6221V15.1436V14.6699V14.1914H339.272V13.7178H339.751V13.2393H340.225H340.703H341.177H341.655H342.129H342.607V13.7178H343.081V14.1914H343.56V14.6699V15.1436V15.6221V16.0957H343.081H342.607H342.129H341.655H341.177H340.703H340.225H339.751V16.5742H340.225V17.0479H340.703H341.177H341.655H342.129H342.607V16.5742H343.081H343.56V17.0479V17.5264H343.081V18H342.607H342.129H341.655H341.177H340.703H340.225H339.751V17.5264H339.272V17.0479H338.799ZM339.751 15.1436H340.225H340.703H341.177H341.655H342.129H342.607V14.6699H342.129V14.1914H341.655H341.177H340.703H340.225V14.6699H339.751V15.1436ZM344.033 16.0957V15.6221V15.1436V14.6699V14.1914V13.7178V13.2393H344.507H344.985V13.7178V14.1914V14.6699V15.1436V15.6221H345.459V16.0957H345.938V16.5742H346.411H346.89V16.0957H347.363V15.6221H347.842V15.1436V14.6699V14.1914V13.7178V13.2393H348.315H348.794V13.7178V14.1914V14.6699V15.1436V15.6221V16.0957H348.315V16.5742H347.842V17.0479H347.363V17.5264H346.89V18H346.411H345.938V17.5264H345.459V17.0479H344.985V16.5742H344.507V16.0957H344.033ZM349.268 17.0479V16.5742V16.0957V15.6221V15.1436V14.6699V14.1914H349.741V13.7178H350.22V13.2393H350.693H351.172H351.646H352.124H352.598H353.076V13.7178H353.55V14.1914H354.028V14.6699V15.1436V15.6221V16.0957H353.55H353.076H352.598H352.124H351.646H351.172H350.693H350.22V16.5742H350.693V17.0479H351.172H351.646H352.124H352.598H353.076V16.5742H353.55H354.028V17.0479V17.5264H353.55V18H353.076H352.598H352.124H351.646H351.172H350.693H350.22V17.5264H349.741V17.0479H349.268ZM350.22 15.1436H350.693H351.172H351.646H352.124H352.598H353.076V14.6699H352.598V14.1914H352.124H351.646H351.172H350.693V14.6699H350.22V15.1436ZM354.502 18V17.5264V17.0479V16.5742V16.0957V15.6221V15.1436V14.6699V14.1914V13.7178V13.2393H354.976H355.454V13.7178H355.928V13.2393H356.406H356.88H357.358H357.832H358.311V13.7178H358.784V14.1914H359.263V14.6699V15.1436V15.6221V16.0957V16.5742V17.0479V17.5264V18H358.784H358.311V17.5264V17.0479V16.5742V16.0957V15.6221V15.1436V14.6699H357.832V14.1914H357.358H356.88H356.406H355.928V14.6699H355.454V15.1436V15.6221V16.0957V16.5742V17.0479V17.5264V18H354.976H354.502ZM359.736 14.1914V13.7178V13.2393H360.21V12.7656V12.2871V11.8135V11.335H360.688H361.162V11.8135V12.2871V12.7656V13.2393H361.641H362.114H362.593V13.7178V14.1914H362.114H361.641H361.162V14.6699V15.1436V15.6221V16.0957V16.5742V17.0479H361.641H362.114H362.593V17.5264V18H362.114H361.641H361.162H360.688V17.5264H360.21V17.0479V16.5742V16.0957V15.6221V15.1436V14.6699V14.1914H359.736ZM363.066 17.5264V17.0479V16.5742H363.54H364.019V17.0479H364.492H364.971H365.444H365.923V16.5742V16.0957H365.444H364.971H364.492H364.019H363.54V15.6221H363.066V15.1436V14.6699V14.1914V13.7178H363.54V13.2393H364.019H364.492H364.971H365.444H365.923H366.396V13.7178H366.875V14.1914V14.6699H366.396H365.923V14.1914H365.444H364.971H364.492H364.019V14.6699V15.1436H364.492H364.971H365.444H365.923H366.396V15.6221H366.875V16.0957V16.5742V17.0479V17.5264H366.396V18H365.923H365.444H364.971H364.492H364.019H363.54V17.5264H363.066ZM275 27.5264V27.0479V26.5742H275.474H275.952V27.0479H276.426H276.904H277.378H277.856V26.5742V26.0957H277.378H276.904H276.426H275.952H275.474V25.6221H275V25.1436V24.6699V24.1914V23.7178H275.474V23.2393H275.952H276.426H276.904H277.378H277.856H278.33V23.7178H278.809V24.1914V24.6699H278.33H277.856V24.1914H277.378H276.904H276.426H275.952V24.6699V25.1436H276.426H276.904H277.378H277.856H278.33V25.6221H278.809V26.0957V26.5742V27.0479V27.5264H278.33V28H277.856H277.378H276.904H276.426H275.952H275.474V27.5264H275ZM279.287 27.0479V26.5742V26.0957V25.6221V25.1436V24.6699V24.1914H279.761V23.7178H280.239V23.2393H280.713H281.191H281.665H282.144H282.617H283.096V23.7178H283.569V24.1914V24.6699H283.096H282.617V24.1914H282.144H281.665H281.191H280.713V24.6699H280.239V25.1436V25.6221V26.0957V26.5742H280.713V27.0479H281.191H281.665H282.144H282.617V26.5742V26.0957H283.096H283.569V26.5742V27.0479V27.5264H283.096V28H282.617H282.144H281.665H281.191H280.713H280.239V27.5264H279.761V27.0479H279.287ZM284.053 28V27.5264V27.0479V26.5742V26.0957V25.6221V25.1436V24.6699V24.1914V23.7178V23.2393V22.7656V22.2871V21.8135V21.335H284.526H285.005V21.8135V22.2871V22.7656V23.2393V23.7178H285.479V23.2393H285.957H286.431H286.909H287.383H287.861V23.7178H288.335V24.1914H288.813V24.6699V25.1436V25.6221V26.0957V26.5742V27.0479V27.5264V28H288.335H287.861V27.5264V27.0479V26.5742V26.0957V25.6221V25.1436V24.6699H287.383V24.1914H286.909H286.431H285.957H285.479V24.6699H285.005V25.1436V25.6221V26.0957V26.5742V27.0479V27.5264V28H284.526H284.053ZM289.287 27.0479V26.5742V26.0957V25.6221V25.1436V24.6699V24.1914H289.761V23.7178H290.239V23.2393H290.713H291.191H291.665H292.144H292.617H293.096V23.7178H293.569V24.1914H294.048V24.6699V25.1436V25.6221V26.0957H293.569H293.096H292.617H292.144H291.665H291.191H290.713H290.239V26.5742H290.713V27.0479H291.191H291.665H292.144H292.617H293.096V26.5742H293.569H294.048V27.0479V27.5264H293.569V28H293.096H292.617H292.144H291.665H291.191H290.713H290.239V27.5264H289.761V27.0479H289.287ZM290.239 25.1436H290.713H291.191H291.665H292.144H292.617H293.096V24.6699H292.617V24.1914H292.144H291.665H291.191H290.713V24.6699H290.239V25.1436ZM294.521 27.0479V26.5742V26.0957V25.6221V25.1436V24.6699V24.1914H294.995V23.7178H295.474V23.2393H295.947H296.426H296.899H297.378H297.852V23.7178H298.33V23.2393V22.7656V22.2871V21.8135V21.335H298.804H299.282V21.8135V22.2871V22.7656V23.2393V23.7178V24.1914V24.6699V25.1436V25.6221V26.0957V26.5742V27.0479V27.5264V28H298.804H298.33H297.852H297.378H296.899H296.426H295.947H295.474V27.5264H294.995V27.0479H294.521ZM295.474 26.5742H295.947V27.0479H296.426H296.899H297.378H297.852H298.33V26.5742V26.0957V25.6221V25.1436V24.6699H297.852V24.1914H297.378H296.899H296.426H295.947V24.6699H295.474V25.1436V25.6221V26.0957V26.5742ZM299.756 27.5264V27.0479V26.5742V26.0957V25.6221V25.1436V24.6699V24.1914V23.7178V23.2393H300.229H300.708V23.7178V24.1914V24.6699V25.1436V25.6221V26.0957V26.5742V27.0479H301.182H301.66H302.134H302.612V26.5742H303.086V26.0957V25.6221V25.1436V24.6699V24.1914V23.7178V23.2393H303.564H304.038V23.7178V24.1914V24.6699V25.1436V25.6221V26.0957V26.5742V27.0479V27.5264V28H303.564H303.086V27.5264H302.612V28H302.134H301.66H301.182H300.708H300.229V27.5264H299.756ZM304.521 22.2871V21.8135V21.335H304.995H305.474H305.947V21.8135V22.2871V22.7656V23.2393V23.7178V24.1914V24.6699V25.1436V25.6221V26.0957V26.5742V27.0479H306.426V27.5264V28H305.947H305.474H304.995V27.5264V27.0479V26.5742V26.0957V25.6221V25.1436V24.6699V24.1914V23.7178V23.2393V22.7656V22.2871H304.521ZM306.904 27.0479V26.5742V26.0957V25.6221V25.1436V24.6699V24.1914H307.378V23.7178H307.856V23.2393H308.33H308.809H309.282H309.761H310.234H310.713V23.7178H311.187V24.1914H311.665V24.6699V25.1436V25.6221V26.0957H311.187H310.713H310.234H309.761H309.282H308.809H308.33H307.856V26.5742H308.33V27.0479H308.809H309.282H309.761H310.234H310.713V26.5742H311.187H311.665V27.0479V27.5264H311.187V28H310.713H310.234H309.761H309.282H308.809H308.33H307.856V27.5264H307.378V27.0479H306.904ZM307.856 25.1436H308.33H308.809H309.282H309.761H310.234H310.713V24.6699H310.234V24.1914H309.761H309.282H308.809H308.33V24.6699H307.856V25.1436ZM312.139 28.957V28.4785V28V27.5264V27.0479H312.612H313.091V27.5264V28V28.4785H312.612V28.957H312.139ZM317.852 26.0957V25.6221V25.1436V24.6699V24.1914V23.7178V23.2393H318.325H318.804V23.7178V24.1914V24.6699V25.1436V25.6221H319.277V26.0957H319.756V26.5742H320.229H320.708V26.0957H321.182V25.6221H321.66V25.1436V24.6699V24.1914V23.7178V23.2393H322.134H322.612V23.7178V24.1914V24.6699V25.1436V25.6221V26.0957H322.134V26.5742H321.66V27.0479H321.182V27.5264H320.708V28H320.229H319.756V27.5264H319.277V27.0479H318.804V26.5742H318.325V26.0957H317.852ZM323.086 27.0479V26.5742V26.0957V25.6221V25.1436V24.6699V24.1914H323.56V23.7178H324.038V23.2393H324.512H324.99H325.464H325.942H326.416H326.895V23.7178H327.368V24.1914H327.847V24.6699V25.1436V25.6221V26.0957H327.368H326.895H326.416H325.942H325.464H324.99H324.512H324.038V26.5742H324.512V27.0479H324.99H325.464H325.942H326.416H326.895V26.5742H327.368H327.847V27.0479V27.5264H327.368V28H326.895H326.416H325.942H325.464H324.99H324.512H324.038V27.5264H323.56V27.0479H323.086ZM324.038 25.1436H324.512H324.99H325.464H325.942H326.416H326.895V24.6699H326.416V24.1914H325.942H325.464H324.99H324.512V24.6699H324.038V25.1436ZM328.32 28V27.5264V27.0479V26.5742V26.0957V25.6221V25.1436V24.6699V24.1914V23.7178V23.2393H328.794H329.272V23.7178H329.746V23.2393H330.225H330.698H331.177H331.65H332.129V23.7178H332.603V24.1914H333.081V24.6699V25.1436V25.6221V26.0957V26.5742V27.0479V27.5264V28H332.603H332.129V27.5264V27.0479V26.5742V26.0957V25.6221V25.1436V24.6699H331.65V24.1914H331.177H330.698H330.225H329.746V24.6699H329.272V25.1436V25.6221V26.0957V26.5742V27.0479V27.5264V28H328.794H328.32ZM333.555 27.5264V27.0479V26.5742V26.0957V25.6221V25.1436V24.6699V24.1914V23.7178V23.2393H334.028H334.507V23.7178V24.1914V24.6699V25.1436V25.6221V26.0957V26.5742V27.0479H334.98H335.459H335.933H336.411V26.5742H336.885V26.0957V25.6221V25.1436V24.6699V24.1914V23.7178V23.2393H337.363H337.837V23.7178V24.1914V24.6699V25.1436V25.6221V26.0957V26.5742V27.0479V27.5264V28H337.363H336.885V27.5264H336.411V28H335.933H335.459H334.98H334.507H334.028V27.5264H333.555ZM338.32 27.0479V26.5742V26.0957V25.6221V25.1436V24.6699V24.1914H338.794V23.7178H339.272V23.2393H339.746H340.225H340.698H341.177H341.65H342.129V23.7178H342.603V24.1914H343.081V24.6699V25.1436V25.6221V26.0957H342.603H342.129H341.65H341.177H340.698H340.225H339.746H339.272V26.5742H339.746V27.0479H340.225H340.698H341.177H341.65H342.129V26.5742H342.603H343.081V27.0479V27.5264H342.603V28H342.129H341.65H341.177H340.698H340.225H339.746H339.272V27.5264H338.794V27.0479H338.32ZM339.272 25.1436H339.746H340.225H340.698H341.177H341.65H342.129V24.6699H341.65V24.1914H341.177H340.698H340.225H339.746V24.6699H339.272V25.1436ZM343.555 27.5264V27.0479V26.5742H344.028H344.507V27.0479H344.98H345.459H345.933H346.411V26.5742V26.0957H345.933H345.459H344.98H344.507H344.028V25.6221H343.555V25.1436V24.6699V24.1914V23.7178H344.028V23.2393H344.507H344.98H345.459H345.933H346.411H346.885V23.7178H347.363V24.1914V24.6699H346.885H346.411V24.1914H345.933H345.459H344.98H344.507V24.6699V25.1436H344.98H345.459H345.933H346.411H346.885V25.6221H347.363V26.0957V26.5742V27.0479V27.5264H346.885V28H346.411H345.933H345.459H344.98H344.507H344.028V27.5264H343.555ZM347.842 28.957V28.4785V28V27.5264V27.0479H348.315H348.794V27.5264V28V28.4785H348.315V28.957H347.842ZM275 37.0479V36.5742V36.0957V35.6221V35.1436V34.6699V34.1914H275.474V33.7178H275.952V33.2393H276.426H276.904H277.378H277.856H278.33V33.7178H278.809V33.2393V32.7656V32.2871V31.8135V31.335H279.282H279.761V31.8135V32.2871V32.7656V33.2393V33.7178V34.1914V34.6699V35.1436V35.6221V36.0957V36.5742V37.0479V37.5264V38H279.282H278.809H278.33H277.856H277.378H276.904H276.426H275.952V37.5264H275.474V37.0479H275ZM275.952 36.5742H276.426V37.0479H276.904H277.378H277.856H278.33H278.809V36.5742V36.0957V35.6221V35.1436V34.6699H278.33V34.1914H277.856H277.378H276.904H276.426V34.6699H275.952V35.1436V35.6221V36.0957V36.5742ZM280.234 38V37.5264V37.0479V36.5742V36.0957V35.6221V35.1436V34.6699V34.1914V33.7178V33.2393H280.708H281.187V33.7178V34.1914V34.6699V35.1436V35.6221V36.0957V36.5742V37.0479V37.5264V38H280.708H280.234ZM280.234 32.2871V31.8135V31.335H280.708H281.187V31.8135V32.2871H280.708H280.234ZM281.66 38V37.5264V37.0479V36.5742V36.0957V35.6221V35.1436V34.6699V34.1914V33.7178V33.2393H282.134H282.612V33.7178H283.086V33.2393H283.564H284.038H284.517V33.7178H284.99V34.1914V34.6699H284.517H284.038V34.1914H283.564H283.086V34.6699H282.612V35.1436V35.6221V36.0957V36.5742V37.0479V37.5264V38H282.134H281.66ZM285.469 37.0479V36.5742V36.0957V35.6221V35.1436V34.6699V34.1914H285.942V33.7178H286.421V33.2393H286.895H287.373H287.847H288.325H288.799H289.277V33.7178H289.751V34.1914H290.229V34.6699V35.1436V35.6221V36.0957H289.751H289.277H288.799H288.325H287.847H287.373H286.895H286.421V36.5742H286.895V37.0479H287.373H287.847H288.325H288.799H289.277V36.5742H289.751H290.229V37.0479V37.5264H289.751V38H289.277H288.799H288.325H287.847H287.373H286.895H286.421V37.5264H285.942V37.0479H285.469ZM286.421 35.1436H286.895H287.373H287.847H288.325H288.799H289.277V34.6699H288.799V34.1914H288.325H287.847H287.373H286.895V34.6699H286.421V35.1436ZM290.703 37.0479V36.5742V36.0957V35.6221V35.1436V34.6699V34.1914H291.177V33.7178H291.655V33.2393H292.129H292.607H293.081H293.56H294.033H294.512V33.7178H294.985V34.1914V34.6699H294.512H294.033V34.1914H293.56H293.081H292.607H292.129V34.6699H291.655V35.1436V35.6221V36.0957V36.5742H292.129V37.0479H292.607H293.081H293.56H294.033V36.5742V36.0957H294.512H294.985V36.5742V37.0479V37.5264H294.512V38H294.033H293.56H293.081H292.607H292.129H291.655V37.5264H291.177V37.0479H290.703ZM295.469 34.1914V33.7178V33.2393H295.942V32.7656V32.2871V31.8135V31.335H296.421H296.895V31.8135V32.2871V32.7656V33.2393H297.373H297.847H298.325V33.7178V34.1914H297.847H297.373H296.895V34.6699V35.1436V35.6221V36.0957V36.5742V37.0479H297.373H297.847H298.325V37.5264V38H297.847H297.373H296.895H296.421V37.5264H295.942V37.0479V36.5742V36.0957V35.6221V35.1436V34.6699V34.1914H295.469ZM298.799 38V37.5264V37.0479V36.5742V36.0957V35.6221V35.1436V34.6699V34.1914V33.7178V33.2393H299.272H299.751V33.7178V34.1914V34.6699V35.1436V35.6221V36.0957V36.5742V37.0479V37.5264V38H299.272H298.799ZM298.799 32.2871V31.8135V31.335H299.272H299.751V31.8135V32.2871H299.272H298.799ZM300.225 37.0479V36.5742V36.0957V35.6221V35.1436V34.6699V34.1914H300.698V33.7178H301.177V33.2393H301.65H302.129H302.603H303.081H303.555H304.033V33.7178H304.507V34.1914H304.985V34.6699V35.1436V35.6221V36.0957V36.5742V37.0479H304.507V37.5264H304.033V38H303.555H303.081H302.603H302.129H301.65H301.177V37.5264H300.698V37.0479H300.225ZM301.177 36.5742H301.65V37.0479H302.129H302.603H303.081H303.555V36.5742H304.033V36.0957V35.6221V35.1436V34.6699H303.555V34.1914H303.081H302.603H302.129H301.65V34.6699H301.177V35.1436V35.6221V36.0957V36.5742ZM305.459 38V37.5264V37.0479V36.5742V36.0957V35.6221V35.1436V34.6699V34.1914V33.7178V33.2393H305.933H306.411V33.7178H306.885V33.2393H307.363H307.837H308.315H308.789H309.268V33.7178H309.741V34.1914H310.22V34.6699V35.1436V35.6221V36.0957V36.5742V37.0479V37.5264V38H309.741H309.268V37.5264V37.0479V36.5742V36.0957V35.6221V35.1436V34.6699H308.789V34.1914H308.315H307.837H307.363H306.885V34.6699H306.411V35.1436V35.6221V36.0957V36.5742V37.0479V37.5264V38H305.933H305.459ZM310.693 37.5264V37.0479V36.5742H311.167H311.646V37.0479H312.119H312.598H313.071H313.55V36.5742V36.0957H313.071H312.598H312.119H311.646H311.167V35.6221H310.693V35.1436V34.6699V34.1914V33.7178H311.167V33.2393H311.646H312.119H312.598H313.071H313.55H314.023V33.7178H314.502V34.1914V34.6699H314.023H313.55V34.1914H313.071H312.598H312.119H311.646V34.6699V35.1436H312.119H312.598H313.071H313.55H314.023V35.6221H314.502V36.0957V36.5742V37.0479V37.5264H314.023V38H313.55H313.071H312.598H312.119H311.646H311.167V37.5264H310.693ZM319.263 35.1436V34.6699V34.1914H319.741H320.215H320.693H321.167H321.646V34.6699V35.1436H321.167H320.693H320.215H319.741H319.263ZM325.928 37.0479V36.5742V36.0957H326.401V35.6221H326.88V35.1436H327.354H327.832H328.306H328.784H329.258H329.736V34.6699H329.258V34.1914H328.784H328.306H327.832H327.354H326.88H326.401V33.7178V33.2393H326.88H327.354H327.832H328.306H328.784H329.258H329.736V33.7178H330.21V34.1914H330.688V34.6699V35.1436V35.6221V36.0957V36.5742V37.0479V37.5264V38H330.21H329.736V37.5264H329.258V38H328.784H328.306H327.832H327.354H326.88V37.5264H326.401V37.0479H325.928ZM327.354 37.0479H327.832H328.306H328.784H329.258V36.5742H329.736V36.0957H329.258H328.784H328.306H327.832H327.354V36.5742V37.0479ZM331.162 38V37.5264V37.0479V36.5742V36.0957V35.6221V35.1436V34.6699V34.1914V33.7178V33.2393H331.636H332.114V33.7178H332.588V33.2393H333.066H333.54H334.019H334.492H334.971V33.7178H335.444V34.1914H335.923V34.6699V35.1436V35.6221V36.0957V36.5742V37.0479V37.5264V38H335.444H334.971V37.5264V37.0479V36.5742V36.0957V35.6221V35.1436V34.6699H334.492V34.1914H334.019H333.54H333.066H332.588V34.6699H332.114V35.1436V35.6221V36.0957V36.5742V37.0479V37.5264V38H331.636H331.162ZM336.396 37.0479V36.5742V36.0957V35.6221V35.1436V34.6699V34.1914H336.87V33.7178H337.349V33.2393H337.822H338.301H338.774H339.253H339.727V33.7178H340.205V33.2393V32.7656V32.2871V31.8135V31.335H340.679H341.157V31.8135V32.2871V32.7656V33.2393V33.7178V34.1914V34.6699V35.1436V35.6221V36.0957V36.5742V37.0479V37.5264V38H340.679H340.205H339.727H339.253H338.774H338.301H337.822H337.349V37.5264H336.87V37.0479H336.396ZM337.349 36.5742H337.822V37.0479H338.301H338.774H339.253H339.727H340.205V36.5742V36.0957V35.6221V35.1436V34.6699H339.727V34.1914H339.253H338.774H338.301H337.822V34.6699H337.349V35.1436V35.6221V36.0957V36.5742ZM345.439 34.6699V34.1914V33.7178V33.2393H345.913H346.392V33.7178V34.1914H346.865V34.6699V35.1436H347.344V35.6221V36.0957H347.817H348.296V35.6221V35.1436H348.77V34.6699V34.1914H349.248V33.7178V33.2393H349.722H350.2V33.7178V34.1914V34.6699H349.722V35.1436V35.6221H349.248V36.0957V36.5742H348.77V37.0479V37.5264H348.296V38V38.4785H347.817V38.957V39.4307H347.344V39.9092H346.865H346.392H345.913V39.4307V38.957H346.392H346.865V38.4785V38H347.344V37.5264H346.865V37.0479V36.5742H346.392V36.0957V35.6221H345.913V35.1436V34.6699H345.439ZM350.674 37.0479V36.5742V36.0957V35.6221V35.1436V34.6699V34.1914H351.147V33.7178H351.626V33.2393H352.1H352.578H353.052H353.53H354.004H354.482V33.7178H354.956V34.1914H355.435V34.6699V35.1436V35.6221V36.0957H354.956H354.482H354.004H353.53H353.052H352.578H352.1H351.626V36.5742H352.1V37.0479H352.578H353.052H353.53H354.004H354.482V36.5742H354.956H355.435V37.0479V37.5264H354.956V38H354.482H354.004H353.53H353.052H352.578H352.1H351.626V37.5264H351.147V37.0479H350.674ZM351.626 35.1436H352.1H352.578H353.052H353.53H354.004H354.482V34.6699H354.004V34.1914H353.53H353.052H352.578H352.1V34.6699H351.626V35.1436ZM355.908 37.0479V36.5742V36.0957H356.382V35.6221H356.86V35.1436H357.334H357.812H358.286H358.765H359.238H359.717V34.6699H359.238V34.1914H358.765H358.286H357.812H357.334H356.86H356.382V33.7178V33.2393H356.86H357.334H357.812H358.286H358.765H359.238H359.717V33.7178H360.19V34.1914H360.669V34.6699V35.1436V35.6221V36.0957V36.5742V37.0479V37.5264V38H360.19H359.717V37.5264H359.238V38H358.765H358.286H357.812H357.334H356.86V37.5264H356.382V37.0479H355.908ZM357.334 37.0479H357.812H358.286H358.765H359.238V36.5742H359.717V36.0957H359.238H358.765H358.286H357.812H357.334V36.5742V37.0479ZM361.143 38V37.5264V37.0479V36.5742V36.0957V35.6221V35.1436V34.6699V34.1914V33.7178V33.2393V32.7656V32.2871V31.8135V31.335H361.616H362.095V31.8135V32.2871V32.7656V33.2393V33.7178H362.568V33.2393H363.047H363.521H363.999H364.473H364.951V33.7178H365.425V34.1914H365.903V34.6699V35.1436V35.6221V36.0957V36.5742V37.0479V37.5264V38H365.425H364.951V37.5264V37.0479V36.5742V36.0957V35.6221V35.1436V34.6699H364.473V34.1914H363.999H363.521H363.047H362.568V34.6699H362.095V35.1436V35.6221V36.0957V36.5742V37.0479V37.5264V38H361.616H361.143ZM370.659 35.1436V34.6699V34.1914H371.138H371.611H372.09H372.563H373.042V34.6699V35.1436H372.563H372.09H371.611H371.138H370.659ZM275 48V47.5264V47.0479V46.5742V46.0957V45.6221V45.1436V44.6699V44.1914V43.7178V43.2393V42.7656V42.2871V41.8135V41.335H275.474H275.952H276.426H276.904H277.378H277.856H278.33H278.809V41.8135H279.282V42.2871V42.7656V43.2393V43.7178V44.1914V44.6699H278.809V45.1436H278.33H277.856H277.378H276.904H276.426H275.952V45.6221V46.0957V46.5742V47.0479V47.5264V48H275.474H275ZM275.952 44.1914H276.426H276.904H277.378H277.856H278.33V43.7178V43.2393V42.7656V42.2871H277.856H277.378H276.904H276.426H275.952V42.7656V43.2393V43.7178V44.1914ZM279.766 42.2871V41.8135V41.335H280.239H280.718H281.191V41.8135V42.2871V42.7656V43.2393V43.7178V44.1914V44.6699V45.1436V45.6221V46.0957V46.5742V47.0479H281.67V47.5264V48H281.191H280.718H280.239V47.5264V47.0479V46.5742V46.0957V45.6221V45.1436V44.6699V44.1914V43.7178V43.2393V42.7656V42.2871H279.766ZM282.148 47.0479V46.5742V46.0957H282.622V45.6221H283.101V45.1436H283.574H284.053H284.526H285.005H285.479H285.957V44.6699H285.479V44.1914H285.005H284.526H284.053H283.574H283.101H282.622V43.7178V43.2393H283.101H283.574H284.053H284.526H285.005H285.479H285.957V43.7178H286.431V44.1914H286.909V44.6699V45.1436V45.6221V46.0957V46.5742V47.0479V47.5264V48H286.431H285.957V47.5264H285.479V48H285.005H284.526H284.053H283.574H283.101V47.5264H282.622V47.0479H282.148ZM283.574 47.0479H284.053H284.526H285.005H285.479V46.5742H285.957V46.0957H285.479H285.005H284.526H284.053H283.574V46.5742V47.0479ZM287.383 44.6699V44.1914V43.7178V43.2393H287.856H288.335V43.7178V44.1914H288.809V44.6699V45.1436H289.287V45.6221V46.0957H289.761H290.239V45.6221V45.1436H290.713V44.6699V44.1914H291.191V43.7178V43.2393H291.665H292.144V43.7178V44.1914V44.6699H291.665V45.1436V45.6221H291.191V46.0957V46.5742H290.713V47.0479V47.5264H290.239V48V48.4785H289.761V48.957V49.4307H289.287V49.9092H288.809H288.335H287.856V49.4307V48.957H288.335H288.809V48.4785V48H289.287V47.5264H288.809V47.0479V46.5742H288.335V46.0957V45.6221H287.856V45.1436V44.6699H287.383ZM296.426 47.0479V46.5742V46.0957V45.6221V45.1436V44.6699V44.1914H296.899V43.7178H297.378V43.2393H297.852H298.33H298.804H299.282H299.756H300.234V43.7178H300.708V44.1914H301.187V44.6699V45.1436V45.6221V46.0957H300.708H300.234H299.756H299.282H298.804H298.33H297.852H297.378V46.5742H297.852V47.0479H298.33H298.804H299.282H299.756H300.234V46.5742H300.708H301.187V47.0479V47.5264H300.708V48H300.234H299.756H299.282H298.804H298.33H297.852H297.378V47.5264H296.899V47.0479H296.426ZM297.378 45.1436H297.852H298.33H298.804H299.282H299.756H300.234V44.6699H299.756V44.1914H299.282H298.804H298.33H297.852V44.6699H297.378V45.1436ZM301.66 48V47.5264V47.0479H302.134V46.5742H302.612V46.0957H303.086V45.6221V45.1436H302.612V44.6699H302.134V44.1914H301.66V43.7178V43.2393H302.134H302.612V43.7178H303.086V44.1914H303.564V44.6699H304.038H304.517V44.1914H304.99V43.7178H305.469V43.2393H305.942H306.421V43.7178V44.1914H305.942V44.6699H305.469V45.1436H304.99V45.6221V46.0957H305.469V46.5742H305.942V47.0479H306.421V47.5264V48H305.942H305.469V47.5264H304.99V47.0479H304.517V46.5742H304.038H303.564V47.0479H303.086V47.5264H302.612V48H302.134H301.66ZM306.895 47.0479V46.5742V46.0957V45.6221V45.1436V44.6699V44.1914H307.368V43.7178H307.847V43.2393H308.32H308.799H309.272H309.751H310.225H310.703V43.7178H311.177V44.1914V44.6699H310.703H310.225V44.1914H309.751H309.272H308.799H308.32V44.6699H307.847V45.1436V45.6221V46.0957V46.5742H308.32V47.0479H308.799H309.272H309.751H310.225V46.5742V46.0957H310.703H311.177V46.5742V47.0479V47.5264H310.703V48H310.225H309.751H309.272H308.799H308.32H307.847V47.5264H307.368V47.0479H306.895ZM311.66 48V47.5264V47.0479V46.5742V46.0957V45.6221V45.1436V44.6699V44.1914V43.7178V43.2393H312.134H312.612V43.7178V44.1914V44.6699V45.1436V45.6221V46.0957V46.5742V47.0479V47.5264V48H312.134H311.66ZM311.66 42.2871V41.8135V41.335H312.134H312.612V41.8135V42.2871H312.134H311.66ZM313.086 44.1914V43.7178V43.2393H313.56V42.7656V42.2871V41.8135V41.335H314.038H314.512V41.8135V42.2871V42.7656V43.2393H314.99H315.464H315.942V43.7178V44.1914H315.464H314.99H314.512V44.6699V45.1436V45.6221V46.0957V46.5742V47.0479H314.99H315.464H315.942V47.5264V48H315.464H314.99H314.512H314.038V47.5264H313.56V47.0479V46.5742V46.0957V45.6221V45.1436V44.6699V44.1914H313.086ZM316.416 48V47.5264V47.0479V46.5742V46.0957V45.6221V45.1436V44.6699V44.1914V43.7178V43.2393H316.89H317.368V43.7178V44.1914V44.6699V45.1436V45.6221V46.0957V46.5742V47.0479V47.5264V48H316.89H316.416ZM316.416 42.2871V41.8135V41.335H316.89H317.368V41.8135V42.2871H316.89H316.416ZM317.842 48V47.5264V47.0479V46.5742V46.0957V45.6221V45.1436V44.6699V44.1914V43.7178V43.2393H318.315H318.794V43.7178H319.268V43.2393H319.746H320.22H320.698H321.172H321.65V43.7178H322.124V44.1914H322.603V44.6699V45.1436V45.6221V46.0957V46.5742V47.0479V47.5264V48H322.124H321.65V47.5264V47.0479V46.5742V46.0957V45.6221V45.1436V44.6699H321.172V44.1914H320.698H320.22H319.746H319.268V44.6699H318.794V45.1436V45.6221V46.0957V46.5742V47.0479V47.5264V48H318.315H317.842ZM323.076 49.4307V48.957V48.4785H323.55H324.028V48.957H324.502H324.98H325.454H325.933H326.406V48.4785H326.885V48V47.5264H326.406V48H325.933H325.454H324.98H324.502H324.028V47.5264H323.55V47.0479H323.076V46.5742V46.0957V45.6221V45.1436V44.6699V44.1914H323.55V43.7178H324.028V43.2393H324.502H324.98H325.454H325.933H326.406H326.885H327.358H327.837V43.7178V44.1914V44.6699V45.1436V45.6221V46.0957V46.5742V47.0479V47.5264V48V48.4785V48.957H327.358V49.4307H326.885V49.9092H326.406H325.933H325.454H324.98H324.502H324.028H323.55V49.4307H323.076ZM324.028 46.5742H324.502V47.0479H324.98H325.454H325.933H326.406V46.5742H326.885V46.0957V45.6221V45.1436V44.6699V44.1914H326.406H325.933H325.454H324.98H324.502V44.6699H324.028V45.1436V45.6221V46.0957V46.5742ZM332.119 49.4307V48.957V48.4785H332.593H333.071V48.957H333.545H334.023H334.497H334.976H335.449V48.4785H335.928V48V47.5264H335.449V48H334.976H334.497H334.023H333.545H333.071V47.5264H332.593V47.0479H332.119V46.5742V46.0957V45.6221V45.1436V44.6699V44.1914H332.593V43.7178H333.071V43.2393H333.545H334.023H334.497H334.976H335.449H335.928H336.401H336.88V43.7178V44.1914V44.6699V45.1436V45.6221V46.0957V46.5742V47.0479V47.5264V48V48.4785V48.957H336.401V49.4307H335.928V49.9092H335.449H334.976H334.497H334.023H333.545H333.071H332.593V49.4307H332.119ZM333.071 46.5742H333.545V47.0479H334.023H334.497H334.976H335.449V46.5742H335.928V46.0957V45.6221V45.1436V44.6699V44.1914H335.449H334.976H334.497H334.023H333.545V44.6699H333.071V45.1436V45.6221V46.0957V46.5742ZM337.354 47.0479V46.5742V46.0957H337.827V45.6221H338.306V45.1436H338.779H339.258H339.731H340.21H340.684H341.162V44.6699H340.684V44.1914H340.21H339.731H339.258H338.779H338.306H337.827V43.7178V43.2393H338.306H338.779H339.258H339.731H340.21H340.684H341.162V43.7178H341.636V44.1914H342.114V44.6699V45.1436V45.6221V46.0957V46.5742V47.0479V47.5264V48H341.636H341.162V47.5264H340.684V48H340.21H339.731H339.258H338.779H338.306V47.5264H337.827V47.0479H337.354ZM338.779 47.0479H339.258H339.731H340.21H340.684V46.5742H341.162V46.0957H340.684H340.21H339.731H339.258H338.779V46.5742V47.0479ZM342.588 48V47.5264V47.0479V46.5742V46.0957V45.6221V45.1436V44.6699V44.1914V43.7178V43.2393H343.062H343.54V43.7178H344.014V43.2393H344.492H344.966H345.444H345.918V43.7178H346.396H346.87V43.2393H347.349H347.822H348.301H348.774H349.253V43.7178H349.727V44.1914H350.205V44.6699V45.1436V45.6221V46.0957V46.5742V47.0479V47.5264V48H349.727H349.253V47.5264V47.0479V46.5742V46.0957V45.6221V45.1436V44.6699H348.774V44.1914H348.301H347.822H347.349V44.6699H346.87V45.1436V45.6221V46.0957V46.5742V47.0479V47.5264V48H346.396H345.918V47.5264V47.0479V46.5742V46.0957V45.6221V45.1436V44.6699H345.444V44.1914H344.966H344.492H344.014V44.6699H343.54V45.1436V45.6221V46.0957V46.5742V47.0479V47.5264V48H343.062H342.588ZM350.684 47.0479V46.5742V46.0957V45.6221V45.1436V44.6699V44.1914H351.157V43.7178H351.636V43.2393H352.109H352.588H353.062H353.54H354.014H354.492V43.7178H354.966V44.1914H355.444V44.6699V45.1436V45.6221V46.0957H354.966H354.492H354.014H353.54H353.062H352.588H352.109H351.636V46.5742H352.109V47.0479H352.588H353.062H353.54H354.014H354.492V46.5742H354.966H355.444V47.0479V47.5264H354.966V48H354.492H354.014H353.54H353.062H352.588H352.109H351.636V47.5264H351.157V47.0479H350.684ZM351.636 45.1436H352.109H352.588H353.062H353.54H354.014H354.492V44.6699H354.014V44.1914H353.54H353.062H352.588H352.109V44.6699H351.636V45.1436ZM355.918 47.5264V47.0479V46.5742H356.392H356.87V47.0479H357.344H357.822H358.296H358.774V46.5742V46.0957H358.296H357.822H357.344H356.87H356.392V45.6221H355.918V45.1436V44.6699V44.1914V43.7178H356.392V43.2393H356.87H357.344H357.822H358.296H358.774H359.248V43.7178H359.727V44.1914V44.6699H359.248H358.774V44.1914H358.296H357.822H357.344H356.87V44.6699V45.1436H357.344H357.822H358.296H358.774H359.248V45.6221H359.727V46.0957V46.5742V47.0479V47.5264H359.248V48H358.774H358.296H357.822H357.344H356.87H356.392V47.5264H355.918ZM360.205 48V47.5264V47.0479H360.679H361.157V47.5264V48H360.679H360.205Z" fill="#FFEBD3" fill-opacity="0.7"/>
<path d="M20 98.957V98.4785V98V97.5264V97.0479V96.5742V96.0957V95.6221V95.1436V94.6699V94.1914V93.7178V93.2393V92.7656V92.2871V91.8135V91.335V90.8613V90.3828H20.4736H20.9521H21.4258H21.9043V90.8613V91.335H21.4258H20.9521V91.8135V92.2871V92.7656V93.2393V93.7178V94.1914V94.6699V95.1436V95.6221V96.0957V96.5742V97.0479V97.5264V98H21.4258H21.9043V98.4785V98.957H21.4258H20.9521H20.4736H20ZM23.3301 97.0479V96.5742V96.0957H23.8037V95.6221H24.2822V95.1436H24.7559H25.2344H25.708H26.1865H26.6602H27.1387V94.6699H26.6602V94.1914H26.1865H25.708H25.2344H24.7559H24.2822H23.8037V93.7178V93.2393H24.2822H24.7559H25.2344H25.708H26.1865H26.6602H27.1387V93.7178H27.6123V94.1914H28.0908V94.6699V95.1436V95.6221V96.0957V96.5742V97.0479V97.5264V98H27.6123H27.1387V97.5264H26.6602V98H26.1865H25.708H25.2344H24.7559H24.2822V97.5264H23.8037V97.0479H23.3301ZM24.7559 97.0479H25.2344H25.708H26.1865H26.6602V96.5742H27.1387V96.0957H26.6602H26.1865H25.708H25.2344H24.7559V96.5742V97.0479ZM29.0381 98.957V98.4785V98H29.5166H29.9902V97.5264V97.0479V96.5742V96.0957V95.6221V95.1436V94.6699V94.1914V93.7178V93.2393V92.7656V92.2871V91.8135V91.335H29.5166H29.0381V90.8613V90.3828H29.5166H29.9902H30.4688H30.9424V90.8613V91.335V91.8135V92.2871V92.7656V93.2393V93.7178V94.1914V94.6699V95.1436V95.6221V96.0957V96.5742V97.0479V97.5264V98V98.4785V98.957H30.4688H29.9902H29.5166H29.0381ZM35.7031 97.0479V96.5742V96.0957V95.6221V95.1436V94.6699V94.1914V93.7178V93.2393V92.7656V92.2871V91.8135V91.335H36.1768H36.6553V91.8135V92.2871V92.7656V93.2393V93.7178V94.1914V94.6699V95.1436V95.6221V96.0957V96.5742H37.1289V97.0479H37.6074H38.0811V96.5742H38.5596V96.0957V95.6221H39.0332H39.5117V96.0957V96.5742H39.9854V97.0479H40.4639H40.9375V96.5742H41.416V96.0957V95.6221V95.1436V94.6699V94.1914V93.7178V93.2393V92.7656V92.2871V91.8135V91.335H41.8896H42.3682V91.8135V92.2871V92.7656V93.2393V93.7178V94.1914V94.6699V95.1436V95.6221V96.0957V96.5742V97.0479H41.8896V97.5264H41.416V98H40.9375H40.4639H39.9854H39.5117V97.5264H39.0332H38.5596V98H38.0811H37.6074H37.1289H36.6553V97.5264H36.1768V97.0479H35.7031ZM42.8418 97.0479V96.5742V96.0957V95.6221V95.1436V94.6699V94.1914H43.3154V93.7178H43.7939V93.2393H44.2676H44.7461H45.2197H45.6982H46.1719H46.6504V93.7178H47.124V94.1914H47.6025V94.6699V95.1436V95.6221V96.0957H47.124H46.6504H46.1719H45.6982H45.2197H44.7461H44.2676H43.7939V96.5742H44.2676V97.0479H44.7461H45.2197H45.6982H46.1719H46.6504V96.5742H47.124H47.6025V97.0479V97.5264H47.124V98H46.6504H46.1719H45.6982H45.2197H44.7461H44.2676H43.7939V97.5264H43.3154V97.0479H42.8418ZM43.7939 95.1436H44.2676H44.7461H45.2197H45.6982H46.1719H46.6504V94.6699H46.1719V94.1914H45.6982H45.2197H44.7461H44.2676V94.6699H43.7939V95.1436ZM48.0762 92.2871V91.8135V91.335H48.5498H49.0283H49.502V91.8135V92.2871V92.7656V93.2393V93.7178V94.1914V94.6699V95.1436V95.6221V96.0957V96.5742V97.0479H49.9805V97.5264V98H49.502H49.0283H48.5498V97.5264V97.0479V96.5742V96.0957V95.6221V95.1436V94.6699V94.1914V93.7178V93.2393V92.7656V92.2871H48.0762ZM50.459 92.2871V91.8135V91.335H50.9326H51.4111H51.8848V91.8135V92.2871V92.7656V93.2393V93.7178V94.1914V94.6699V95.1436V95.6221V96.0957V96.5742V97.0479H52.3633V97.5264V98H51.8848H51.4111H50.9326V97.5264V97.0479V96.5742V96.0957V95.6221V95.1436V94.6699V94.1914V93.7178V93.2393V92.7656V92.2871H50.459ZM52.8418 98.957V98.4785V98V97.5264V97.0479H53.3154H53.7939V97.5264V98V98.4785H53.3154V98.957H52.8418ZM20 108V107.526V107.048V106.574V106.096V105.622V105.144V104.67V104.191V103.718V103.239V102.766V102.287V101.813V101.335H20.4736H20.9521V101.813V102.287V102.766V103.239V103.718H21.4258V103.239H21.9043H22.3779H22.8564H23.3301H23.8086V103.718H24.2822V104.191H24.7607V104.67V105.144V105.622V106.096V106.574V107.048V107.526V108H24.2822H23.8086V107.526V107.048V106.574V106.096V105.622V105.144V104.67H23.3301V104.191H22.8564H22.3779H21.9043H21.4258V104.67H20.9521V105.144V105.622V106.096V106.574V107.048V107.526V108H20.4736H20ZM25.2344 107.048V106.574V106.096V105.622V105.144V104.67V104.191H25.708V103.718H26.1865V103.239H26.6602H27.1387H27.6123H28.0908H28.5645H29.043V103.718H29.5166V104.191H29.9951V104.67V105.144V105.622V106.096H29.5166H29.043H28.5645H28.0908H27.6123H27.1387H26.6602H26.1865V106.574H26.6602V107.048H27.1387H27.6123H28.0908H28.5645H29.043V106.574H29.5166H29.9951V107.048V107.526H29.5166V108H29.043H28.5645H28.0908H27.6123H27.1387H26.6602H26.1865V107.526H25.708V107.048H25.2344ZM26.1865 105.144H26.6602H27.1387H27.6123H28.0908H28.5645H29.043V104.67H28.5645V104.191H28.0908H27.6123H27.1387H26.6602V104.67H26.1865V105.144ZM30.4688 108V107.526V107.048V106.574V106.096V105.622V105.144V104.67V104.191V103.718V103.239H30.9424H31.4209V103.718H31.8945V103.239H32.373H32.8467H33.3252V103.718H33.7988V104.191V104.67H33.3252H32.8467V104.191H32.373H31.8945V104.67H31.4209V105.144V105.622V106.096V106.574V107.048V107.526V108H30.9424H30.4688ZM34.2773 107.048V106.574V106.096V105.622V105.144V104.67V104.191H34.751V103.718H35.2295V103.239H35.7031H36.1816H36.6553H37.1338H37.6074H38.0859V103.718H38.5596V104.191H39.0381V104.67V105.144V105.622V106.096H38.5596H38.0859H37.6074H37.1338H36.6553H36.1816H35.7031H35.2295V106.574H35.7031V107.048H36.1816H36.6553H37.1338H37.6074H38.0859V106.574H38.5596H39.0381V107.048V107.526H38.5596V108H38.0859H37.6074H37.1338H36.6553H36.1816H35.7031H35.2295V107.526H34.751V107.048H34.2773ZM35.2295 105.144H35.7031H36.1816H36.6553H37.1338H37.6074H38.0859V104.67H37.6074V104.191H37.1338H36.6553H36.1816H35.7031V104.67H35.2295V105.144ZM41.1417 100.97C41.0817 101.203 41.0051 101.457 40.9117 101.73C40.8184 102.003 40.7151 102.277 40.6017 102.55C40.4951 102.817 40.3884 103.07 40.2817 103.31H39.6317C39.6784 103.123 39.7251 102.923 39.7717 102.71C39.8251 102.497 39.8717 102.283 39.9117 102.07C39.9584 101.85 39.9984 101.637 40.0317 101.43C40.0717 101.223 40.1051 101.033 40.1317 100.86H41.0717L41.1417 100.97ZM41.2598 107.526V107.048V106.574H41.7334H42.2119V107.048H42.6855H43.1641H43.6377H44.1162V106.574V106.096H43.6377H43.1641H42.6855H42.2119H41.7334V105.622H41.2598V105.144V104.67V104.191V103.718H41.7334V103.239H42.2119H42.6855H43.1641H43.6377H44.1162H44.5898V103.718H45.0684V104.191V104.67H44.5898H44.1162V104.191H43.6377H43.1641H42.6855H42.2119V104.67V105.144H42.6855H43.1641H43.6377H44.1162H44.5898V105.622H45.0684V106.096V106.574V107.048V107.526H44.5898V108H44.1162H43.6377H43.1641H42.6855H42.2119H41.7334V107.526H41.2598ZM49.3555 104.67V104.191V103.718V103.239H49.8291H50.3076V103.718V104.191H50.7812V104.67V105.144H51.2598V105.622V106.096H51.7334H52.2119V105.622V105.144H52.6855V104.67V104.191H53.1641V103.718V103.239H53.6377H54.1162V103.718V104.191V104.67H53.6377V105.144V105.622H53.1641V106.096V106.574H52.6855V107.048V107.526H52.2119V108V108.479H51.7334V108.957V109.431H51.2598V109.909H50.7812H50.3076H49.8291V109.431V108.957H50.3076H50.7812V108.479V108H51.2598V107.526H50.7812V107.048V106.574H50.3076V106.096V105.622H49.8291V105.144V104.67H49.3555ZM54.5898 107.048V106.574V106.096V105.622V105.144V104.67V104.191H55.0635V103.718H55.542V103.239H56.0156H56.4941H56.9678H57.4463H57.9199H58.3984V103.718H58.8721V104.191H59.3506V104.67V105.144V105.622V106.096V106.574V107.048H58.8721V107.526H58.3984V108H57.9199H57.4463H56.9678H56.4941H56.0156H55.542V107.526H55.0635V107.048H54.5898ZM55.542 106.574H56.0156V107.048H56.4941H56.9678H57.4463H57.9199V106.574H58.3984V106.096V105.622V105.144V104.67H57.9199V104.191H57.4463H56.9678H56.4941H56.0156V104.67H55.542V105.144V105.622V106.096V106.574ZM59.8242 107.526V107.048V106.574V106.096V105.622V105.144V104.67V104.191V103.718V103.239H60.2979H60.7764V103.718V104.191V104.67V105.144V105.622V106.096V106.574V107.048H61.25H61.7285H62.2021H62.6807V106.574H63.1543V106.096V105.622V105.144V104.67V104.191V103.718V103.239H63.6328H64.1064V103.718V104.191V104.67V105.144V105.622V106.096V106.574V107.048V107.526V108H63.6328H63.1543V107.526H62.6807V108H62.2021H61.7285H61.25H60.7764H60.2979V107.526H59.8242ZM64.5898 108V107.526V107.048V106.574V106.096V105.622V105.144V104.67V104.191V103.718V103.239H65.0635H65.542V103.718H66.0156V103.239H66.4941H66.9678H67.4463V103.718H67.9199V104.191V104.67H67.4463H66.9678V104.191H66.4941H66.0156V104.67H65.542V105.144V105.622V106.096V106.574V107.048V107.526V108H65.0635H64.5898ZM20 118V117.526V117.048V116.574V116.096V115.622V115.144V114.67V114.191V113.718V113.239V112.766V112.287H20.4736V111.813H20.9521V111.335H21.4258H21.9043H22.3779H22.8564H23.3301H23.8086V111.813H24.2822V112.287H24.7607V112.766V113.239V113.718V114.191V114.67V115.144V115.622V116.096V116.574V117.048V117.526V118H24.2822H23.8086V117.526V117.048V116.574V116.096H23.3301H22.8564H22.3779H21.9043H21.4258H20.9521V116.574V117.048V117.526V118H20.4736H20ZM20.9521 115.144H21.4258H21.9043H22.3779H22.8564H23.3301H23.8086V114.67V114.191V113.718V113.239V112.766H23.3301V112.287H22.8564H22.3779H21.9043H21.4258V112.766H20.9521V113.239V113.718V114.191V114.67V115.144ZM25.2344 112.287V111.813V111.335H25.708H26.1865H26.6602V111.813V112.287V112.766V113.239V113.718V114.191V114.67V115.144V115.622V116.096V116.574V117.048H27.1387V117.526V118H26.6602H26.1865H25.708V117.526V117.048V116.574V116.096V115.622V115.144V114.67V114.191V113.718V113.239V112.766V112.287H25.2344ZM27.6172 117.048V116.574V116.096V115.622V115.144V114.67V114.191H28.0908V113.718H28.5693V113.239H29.043H29.5215H29.9951H30.4736H30.9473H31.4258V113.718H31.8994V114.191V114.67H31.4258H30.9473V114.191H30.4736H29.9951H29.5215H29.043V114.67H28.5693V115.144V115.622V116.096V116.574H29.043V117.048H29.5215H29.9951H30.4736H30.9473V116.574V116.096H31.4258H31.8994V116.574V117.048V117.526H31.4258V118H30.9473H30.4736H29.9951H29.5215H29.043H28.5693V117.526H28.0908V117.048H27.6172ZM32.3828 118V117.526V117.048V116.574V116.096V115.622V115.144V114.67V114.191V113.718V113.239V112.766V112.287V111.813V111.335H32.8564H33.335V111.813V112.287V112.766V113.239V113.718H33.8086V113.239H34.2871H34.7607H35.2393H35.7129H36.1914V113.718H36.665V114.191H37.1436V114.67V115.144V115.622V116.096V116.574V117.048V117.526V118H36.665H36.1914V117.526V117.048V116.574V116.096V115.622V115.144V114.67H35.7129V114.191H35.2393H34.7607H34.2871H33.8086V114.67H33.335V115.144V115.622V116.096V116.574V117.048V117.526V118H32.8564H32.3828ZM37.6172 117.048V116.574V116.096V115.622V115.144V114.67V114.191H38.0908V113.718H38.5693V113.239H39.043H39.5215H39.9951H40.4736H40.9473H41.4258V113.718H41.8994V114.191H42.3779V114.67V115.144V115.622V116.096H41.8994H41.4258H40.9473H40.4736H39.9951H39.5215H39.043H38.5693V116.574H39.043V117.048H39.5215H39.9951H40.4736H40.9473H41.4258V116.574H41.8994H42.3779V117.048V117.526H41.8994V118H41.4258H40.9473H40.4736H39.9951H39.5215H39.043H38.5693V117.526H38.0908V117.048H37.6172ZM38.5693 115.144H39.043H39.5215H39.9951H40.4736H40.9473H41.4258V114.67H40.9473V114.191H40.4736H39.9951H39.5215H39.043V114.67H38.5693V115.144ZM42.8516 118V117.526V117.048V116.574V116.096V115.622V115.144V114.67V114.191V113.718V113.239H43.3252H43.8037V113.718H44.2773V113.239H44.7559H45.2295H45.708V113.718H46.1816V114.191V114.67H45.708H45.2295V114.191H44.7559H44.2773V114.67H43.8037V115.144V115.622V116.096V116.574V117.048V117.526V118H43.3252H42.8516ZM50.4688 117.048V116.574V116.096V115.622V115.144V114.67V114.191V113.718V113.239V112.766V112.287H50.9424V111.813H51.4209V111.335H51.8945H52.373H52.8467H53.3252H53.7988H54.2773H54.751H55.2295V111.813V112.287H54.751H54.2773H53.7988H53.3252H52.8467H52.373H51.8945V112.766H51.4209V113.239V113.718V114.191V114.67V115.144V115.622V116.096V116.574H51.8945V117.048H52.373H52.8467H53.3252H53.7988V116.574H54.2773V116.096V115.622V115.144H53.7988H53.3252H52.8467V114.67V114.191H53.3252H53.7988H54.2773H54.751H55.2295V114.67V115.144V115.622V116.096V116.574V117.048V117.526V118H54.751H54.2773H53.7988H53.3252H52.8467H52.373H51.8945H51.4209V117.526H50.9424V117.048H50.4688ZM55.7031 117.526V117.048V116.574V116.096V115.622V115.144V114.67V114.191V113.718V113.239H56.1768H56.6553V113.718V114.191V114.67V115.144V115.622V116.096V116.574V117.048H57.1289H57.6074H58.0811H58.5596V116.574H59.0332V116.096V115.622V115.144V114.67V114.191V113.718V113.239H59.5117H59.9854V113.718V114.191V114.67V115.144V115.622V116.096V116.574V117.048V117.526V118H59.5117H59.0332V117.526H58.5596V118H58.0811H57.6074H57.1289H56.6553H56.1768V117.526H55.7031ZM60.4688 118V117.526V117.048V116.574V116.096V115.622V115.144V114.67V114.191V113.718V113.239H60.9424H61.4209V113.718V114.191V114.67V115.144V115.622V116.096V116.574V117.048V117.526V118H60.9424H60.4688ZM60.4688 112.287V111.813V111.335H60.9424H61.4209V111.813V112.287H60.9424H60.4688ZM61.8945 117.048V116.574V116.096V115.622V115.144V114.67V114.191H62.3682V113.718H62.8467V113.239H63.3203H63.7988H64.2725H64.751H65.2246V113.718H65.7031V113.239V112.766V112.287V111.813V111.335H66.1768H66.6553V111.813V112.287V112.766V113.239V113.718V114.191V114.67V115.144V115.622V116.096V116.574V117.048V117.526V118H66.1768H65.7031H65.2246H64.751H64.2725H63.7988H63.3203H62.8467V117.526H62.3682V117.048H61.8945ZM62.8467 116.574H63.3203V117.048H63.7988H64.2725H64.751H65.2246H65.7031V116.574V116.096V115.622V115.144V114.67H65.2246V114.191H64.751H64.2725H63.7988H63.3203V114.67H62.8467V115.144V115.622V116.096V116.574ZM67.1289 117.048V116.574V116.096V115.622V115.144V114.67V114.191H67.6025V113.718H68.0811V113.239H68.5547H69.0332H69.5068H69.9854H70.459H70.9375V113.718H71.4111V114.191H71.8896V114.67V115.144V115.622V116.096H71.4111H70.9375H70.459H69.9854H69.5068H69.0332H68.5547H68.0811V116.574H68.5547V117.048H69.0332H69.5068H69.9854H70.459H70.9375V116.574H71.4111H71.8896V117.048V117.526H71.4111V118H70.9375H70.459H69.9854H69.5068H69.0332H68.5547H68.0811V117.526H67.6025V117.048H67.1289ZM68.0811 115.144H68.5547H69.0332H69.5068H69.9854H70.459H70.9375V114.67H70.459V114.191H69.9854H69.5068H69.0332H68.5547V114.67H68.0811V115.144ZM72.3633 118V117.526V117.048H72.8369H73.3154V117.526V118H72.8369H72.3633Z" fill="#FFEBD3" fill-opacity="0.7"/>
</svg>
